<?xml version="1.0" encoding="iso-8859-1"?><!DOCTYPE svg PUBLIC "-//W3C//DTD SVG 1.1//EN" "http://www.w3.org/Graphics/SVG/1.1/DTD/svg11.dtd"><svg xmlns="http://www.w3.org/2000/svg" xmlns:xlink="http://www.w3.org/1999/xlink"><symbol viewBox="0 0 247.46 247.46" id="001-filter" xmlns="http://www.w3.org/2000/svg"><path d="M246.744 13.984a7.5 7.5 0 00-6.784-4.301H7.5a7.501 7.501 0 00-5.787 12.271l89.361 108.384v99.94a7.5 7.5 0 0010.83 6.72l50.208-24.885a7.499 7.499 0 004.169-6.71l.098-75.062 89.366-108.388a7.497 7.497 0 00.999-7.969zM143.097 122.873a7.498 7.498 0 00-1.713 4.761l-.096 73.103-35.213 17.453v-90.546a7.496 7.496 0 00-1.713-4.771L23.404 24.682h200.651l-80.958 98.191z"/></symbol><symbol viewBox="0 -47 512.002 512" id="003-twitter" xmlns="http://www.w3.org/2000/svg"><path d="M191.012 419.043c-22.14 0-44.93-1.793-67.856-5.387-40.379-6.336-81.254-27.457-92.82-33.781L0 363.289l32.844-10.8c35.902-11.805 57.742-19.13 84.777-30.598-27.07-13.11-47.933-36.692-57.976-67.176l-7.641-23.195 6.266.957A113.939 113.939 0 0144 214.883c-12.934-19.645-19.781-43.649-18.324-64.219l1.437-20.246 12.121 4.695a113.316 113.316 0 01-10.98-30.777c-5.293-26.36-.863-54.363 12.476-78.852L51.29 6.102l14.12 16.96c44.66 53.649 101.227 85.473 168.363 94.79-2.742-18.903-.687-37.145 6.114-53.497 7.918-19.039 22.004-35.183 40.722-46.69 20.79-12.778 46-18.97 70.989-17.435 26.511 1.63 50.582 11.563 69.699 28.747 9.336-2.426 16.215-5.016 25.512-8.516 5.593-2.106 11.937-4.496 19.875-7.23l29.25-10.079-19.075 54.477a96.355 96.355 0 013.91-.254l31.235-1.414-18.461 25.23c-1.059 1.446-1.328 1.856-1.703 2.422-1.488 2.242-3.34 5.032-28.68 38.867-6.344 8.473-9.512 19.508-8.922 31.079 2.246 43.968-3.148 83.75-16.043 118.234-12.195 32.625-31.093 60.617-56.164 83.2-31.023 27.937-70.582 47.066-117.582 56.847-23.054 4.797-47.812 7.203-73.437 7.203zm0 0"/></symbol><symbol viewBox="0 0 482.428 482.429" id="006-delete-button" xmlns="http://www.w3.org/2000/svg"><path d="M381.163 57.799h-75.094C302.323 25.316 274.686 0 241.214 0c-33.471 0-61.104 25.315-64.85 57.799h-75.098c-30.39 0-55.111 24.728-55.111 55.117v2.828c0 23.223 14.46 43.1 34.83 51.199v260.369c0 30.39 24.724 55.117 55.112 55.117h210.236c30.389 0 55.111-24.729 55.111-55.117V166.944c20.369-8.1 34.83-27.977 34.83-51.199v-2.828c0-30.39-24.723-55.118-55.111-55.118zm-139.949-31.66c19.037 0 34.927 13.645 38.443 31.66h-76.879c3.515-18.016 19.406-31.66 38.436-31.66zm134.091 401.173c0 15.978-13 28.979-28.973 28.979H136.096c-15.973 0-28.973-13.002-28.973-28.979V170.861h268.182v256.451zm34.83-311.568c0 15.978-13 28.979-28.973 28.979H101.266c-15.973 0-28.973-13.001-28.973-28.979v-2.828c0-15.978 13-28.979 28.973-28.979h279.897c15.973 0 28.973 13.001 28.973 28.979v2.828z"/><path d="M171.144 422.863c7.218 0 13.069-5.853 13.069-13.068V262.641c0-7.216-5.852-13.07-13.069-13.07-7.217 0-13.069 5.854-13.069 13.07v147.154c-.001 7.217 5.851 13.068 13.069 13.068zM241.214 422.863c7.218 0 13.07-5.853 13.07-13.068V262.641c0-7.216-5.854-13.07-13.07-13.07-7.217 0-13.069 5.854-13.069 13.07v147.154c0 7.217 5.851 13.068 13.069 13.068zM311.284 422.863c7.217 0 13.068-5.853 13.068-13.068V262.641c0-7.216-5.852-13.07-13.068-13.07-7.219 0-13.07 5.854-13.07 13.07v147.154c-.001 7.217 5.853 13.068 13.07 13.068z"/></symbol><symbol viewBox="0 0 180.607 180.607" id="007-wrong" xmlns="http://www.w3.org/2000/svg"><path d="M180.607 10.607l-79.696 79.697 79.696 79.697L170 180.607l-79.696-79.696-79.696 79.696L0 170.001l79.696-79.697L0 10.607 10.607.001l79.696 79.696L170 .001l10.607 10.606z"/></symbol><symbol viewBox="-48 0 407 407" id="008-delete" xmlns="http://www.w3.org/2000/svg"><path d="M89.2 37c0-12.133 9.468-21 21.6-21h88.802c12.128 0 21.597 8.867 21.597 21v23h16V37c0-20.953-16.644-37-37.597-37H110.8C89.848 0 73.199 16.047 73.199 37v23h16zm0 0M60.602 407H249.8c18.242 0 32.398-16.047 32.398-36V124h-254v247c0 19.953 14.156 36 32.403 36zm145.597-244.8a8 8 0 0116 0v189a8 8 0 01-16 0zm-59 0a8 8 0 0116 0v189a8 8 0 01-16 0zm-59 0a8 8 0 0116 0v189a8 8 0 01-16 0zm0 0M20 108h270.398c11.047 0 20-8.953 20-20s-8.953-20-20-20H20C8.953 68 0 76.953 0 88s8.953 20 20 20zm0 0"/></symbol><symbol viewBox="0 0 41.561 41.561" id="009-pencil-tool-symbol" xmlns="http://www.w3.org/2000/svg"><path d="M29.785 14.041L18.197 25.628a2.17 2.17 0 00.002 3.069c.088.089.184.161.282.23a2.358 2.358 0 01-.666.136l-4.782.872c.11-.188.188-.393.188-.626 0-2.472-2.82-1.229-2.82-2.821 0-1.595-1.945-1.944-1.945-1.944l-.416-.043.73-4.12.01-.105a2.52 2.52 0 01.205-.858 2.169 2.169 0 003.351.353L23.924 8.183a2.171 2.171 0 00-3.07-3.071L9.266 16.702l-.018.02a.663.663 0 00-.211.143c-.779.778-1.621 2.056-1.677 3.325L5.543 30.473l-.013.123c0 .5.203.953.533 1.282.328.328.781.531 1.279.531l10.563-1.923c1.066-.045 2.191-.604 3.17-1.582.029-.029.043-.066.066-.102.039-.035.084-.062.121-.102l11.589-11.587a2.167 2.167 0 00-.002-3.072 2.158 2.158 0 00-3.064 0z"/><path d="M13.74 24.239a2.166 2.166 0 003.067.001l11.59-11.588a2.169 2.169 0 000-3.07 2.169 2.169 0 00-3.071 0L13.738 21.169a2.174 2.174 0 00.002 3.07zM36.549 6.736l-5.352-5.351a4.732 4.732 0 00-6.691 0l-.605.605a.711.711 0 000 1.003l11.04 11.041a.715.715 0 001.005 0l.604-.604a4.74 4.74 0 00-.001-6.694zM18.551 40.633c-.566.054-1.133.052-1.682.004s-1.076-.171-1.576-.348c-.242-.116-.496-.188-.721-.332-.229-.139-.463-.25-.668-.423a7.431 7.431 0 01-1.191-1.069c-.178-.209-.371-.39-.533-.616l-.498-.656a.862.862 0 00-.899-.313l-.096.022a14.89 14.89 0 01-2.06.387 8.22 8.22 0 01-.977.045 3.96 3.96 0 01-.834-.108 3.027 3.027 0 01-.277-.116c-.037-.054-.129-.07-.115-.114-.004-.021-.018-.023-.024-.036.008-.021.01-.037.006-.048-.027.003.014-.104-.01-.142-.011-.06.024-.186.022-.27-.002-.093.057-.205.072-.304l.035-.163.098-.264.191-.523a1.505 1.505 0 00-1.08-1.985A1.505 1.505 0 003.936 34.4l-.004.016-.123.544-.061.271-.056.39c-.024.27-.077.521-.061.8.025.285.02.539.096.843.104.312.144.604.354.903.092.146.19.293.293.431.114.125.25.235.381.346.264.243.545.332.826.47.268.091.534.146.791.19 1 .116 1.83-.039 2.625-.222a15.19 15.19 0 001.735-.545l.179.181c.211.227.469.416.7.623.479.4 1 .772 1.566 1.069.271.168.578.275.873.399.289.136.613.188.916.282a7.4 7.4 0 001.873.163 9.767 9.767 0 001.805-.239c.588-.117 1.156-.28 1.719-.457 1.125-.351 2.224-.751 3.323-1.141-1.143.242-2.285.497-3.43.693-.564.099-1.137.184-1.705.223z"/></symbol><symbol viewBox="0 0 512 512" id="012-maps-and-flags" xmlns="http://www.w3.org/2000/svg"><path d="M256 0C153.755 0 70.573 83.182 70.573 185.426c0 126.888 165.939 313.167 173.004 321.035 6.636 7.391 18.222 7.378 24.846 0 7.065-7.868 173.004-194.147 173.004-321.035C441.425 83.182 358.244 0 256 0zm0 278.719c-51.442 0-93.292-41.851-93.292-93.293S204.559 92.134 256 92.134s93.291 41.851 93.291 93.293-41.85 93.292-93.291 93.292z"/></symbol><symbol viewBox="0 0 512 512" id="014-instagram" xmlns="http://www.w3.org/2000/svg"><path d="M352 0H160C71.648 0 0 71.648 0 160v192c0 88.352 71.648 160 160 160h192c88.352 0 160-71.648 160-160V160C512 71.648 440.352 0 352 0zm112 352c0 61.76-50.24 112-112 112H160c-61.76 0-112-50.24-112-112V160C48 98.24 98.24 48 160 48h192c61.76 0 112 50.24 112 112v192z"/><path d="M256 128c-70.688 0-128 57.312-128 128s57.312 128 128 128 128-57.312 128-128-57.312-128-128-128zm0 208c-44.096 0-80-35.904-80-80 0-44.128 35.904-80 80-80s80 35.872 80 80c0 44.096-35.904 80-80 80z"/><circle cx="393.6" cy="118.4" r="17.056"/></symbol><symbol viewBox="0 0 169.063 169.063" id="014-instagram-logo" xmlns="http://www.w3.org/2000/svg"><path d="M122.406 0H46.654C20.929 0 0 20.93 0 46.655v75.752c0 25.726 20.929 46.655 46.654 46.655h75.752c25.727 0 46.656-20.93 46.656-46.655V46.655C169.063 20.93 148.133 0 122.406 0zm31.657 122.407c0 17.455-14.201 31.655-31.656 31.655H46.654C29.2 154.063 15 139.862 15 122.407V46.655C15 29.201 29.2 15 46.654 15h75.752c17.455 0 31.656 14.201 31.656 31.655v75.752z"/><path d="M84.531 40.97c-24.021 0-43.563 19.542-43.563 43.563 0 24.02 19.542 43.561 43.563 43.561s43.563-19.541 43.563-43.561c0-24.021-19.542-43.563-43.563-43.563zm0 72.123c-15.749 0-28.563-12.812-28.563-28.561 0-15.75 12.813-28.563 28.563-28.563s28.563 12.813 28.563 28.563c0 15.749-12.814 28.561-28.563 28.561zM129.921 28.251c-2.89 0-5.729 1.17-7.77 3.22a11.053 11.053 0 00-3.23 7.78c0 2.891 1.18 5.73 3.23 7.78 2.04 2.04 4.88 3.22 7.77 3.22 2.9 0 5.73-1.18 7.78-3.22 2.05-2.05 3.22-4.89 3.22-7.78 0-2.9-1.17-5.74-3.22-7.78-2.04-2.05-4.88-3.22-7.78-3.22z"/></symbol><symbol viewBox="0 -1 401.523 401" id="016-edit" xmlns="http://www.w3.org/2000/svg"><path d="M370.59 250.973c-5.524 0-10 4.476-10 10v88.789c-.02 16.562-13.438 29.984-30 30H50c-16.563-.016-29.98-13.438-30-30V89.172c.02-16.559 13.438-29.98 30-30h88.79c5.523 0 10-4.477 10-10 0-5.52-4.477-10-10-10H50c-27.602.031-49.969 22.398-50 50v260.594c.031 27.601 22.398 49.968 50 50h280.59c27.601-.032 49.969-22.399 50-50v-88.793c0-5.524-4.477-10-10-10zm0 0"/><path d="M376.629 13.441c-17.574-17.574-46.067-17.574-63.64 0L134.581 191.848a9.997 9.997 0 00-2.566 4.402l-23.461 84.7a9.997 9.997 0 0012.304 12.308l84.7-23.465a9.997 9.997 0 004.402-2.566l178.402-178.41c17.547-17.587 17.547-46.055 0-63.641zM156.37 198.348L302.383 52.332l47.09 47.09-146.016 146.016zm-9.406 18.875l37.62 37.625-52.038 14.418zM374.223 74.676L363.617 85.28l-47.094-47.094 10.61-10.605c9.762-9.762 25.59-9.762 35.351 0l11.739 11.734c9.746 9.774 9.746 25.59 0 35.36zm0 0"/></symbol><symbol viewBox="0 0 512 512" id="018-twitter-2" xmlns="http://www.w3.org/2000/svg"><path d="M512 97.248c-19.04 8.352-39.328 13.888-60.48 16.576 21.76-12.992 38.368-33.408 46.176-58.016-20.288 12.096-42.688 20.64-66.56 25.408C411.872 60.704 384.416 48 354.464 48c-58.112 0-104.896 47.168-104.896 104.992 0 8.32.704 16.32 2.432 23.936-87.264-4.256-164.48-46.08-216.352-109.792-9.056 15.712-14.368 33.696-14.368 53.056 0 36.352 18.72 68.576 46.624 87.232-16.864-.32-33.408-5.216-47.424-12.928v1.152c0 51.008 36.384 93.376 84.096 103.136-8.544 2.336-17.856 3.456-27.52 3.456-6.72 0-13.504-.384-19.872-1.792 13.6 41.568 52.192 72.128 98.08 73.12-35.712 27.936-81.056 44.768-130.144 44.768-8.608 0-16.864-.384-25.12-1.44C46.496 446.88 101.6 464 161.024 464c193.152 0 298.752-160 298.752-298.688 0-4.64-.16-9.12-.384-13.568 20.832-14.784 38.336-33.248 52.608-54.496z"/></symbol><symbol viewBox="0 0 96.124 96.123" id="020-facebook-logo-1" xmlns="http://www.w3.org/2000/svg"><path d="M72.089.02L59.624 0C45.62 0 36.57 9.285 36.57 23.656v10.907H24.037a1.96 1.96 0 00-1.96 1.961v15.803a1.96 1.96 0 001.96 1.96H36.57v39.876a1.96 1.96 0 001.96 1.96h16.352a1.96 1.96 0 001.96-1.96V54.287h14.654a1.96 1.96 0 001.96-1.96l.006-15.803a1.963 1.963 0 00-1.961-1.961H56.842v-9.246c0-4.444 1.059-6.7 6.848-6.7l8.397-.003a1.96 1.96 0 001.959-1.96V1.98A1.96 1.96 0 0072.089.02z"/></symbol><symbol viewBox="0 0 471.2 471.2" id="023-download" xmlns="http://www.w3.org/2000/svg"><path d="M457.7 230.15c-7.5 0-13.5 6-13.5 13.5v122.8c0 33.4-27.2 60.5-60.5 60.5H87.5c-33.4 0-60.5-27.2-60.5-60.5v-124.8c0-7.5-6-13.5-13.5-13.5s-13.5 6-13.5 13.5v124.8c0 48.3 39.3 87.5 87.5 87.5h296.2c48.3 0 87.5-39.3 87.5-87.5v-122.8c0-7.4-6-13.5-13.5-13.5z"/><path d="M226.1 346.75c2.6 2.6 6.1 4 9.5 4s6.9-1.3 9.5-4l85.8-85.8c5.3-5.3 5.3-13.8 0-19.1-5.3-5.3-13.8-5.3-19.1 0l-62.7 62.8V30.75c0-7.5-6-13.5-13.5-13.5s-13.5 6-13.5 13.5v273.9l-62.8-62.8c-5.3-5.3-13.8-5.3-19.1 0-5.3 5.3-5.3 13.8 0 19.1l85.9 85.8z"/></symbol><symbol viewBox="0 0 258.75 258.75" id="024-user" xmlns="http://www.w3.org/2000/svg"><circle cx="129.375" cy="60" r="60"/><path d="M129.375 150c-60.061 0-108.75 48.689-108.75 108.75h217.5c0-60.061-48.689-108.75-108.75-108.75z"/></symbol><symbol viewBox="0 0 486.3 486.3" id="026-upload" xmlns="http://www.w3.org/2000/svg"><path d="M395.5 135.8c-5.2-30.9-20.5-59.1-43.9-80.5-26-23.8-59.8-36.9-95-36.9-27.2 0-53.7 7.8-76.4 22.5-18.9 12.2-34.6 28.7-45.7 48.1-4.8-.9-9.8-1.4-14.8-1.4-42.5 0-77.1 34.6-77.1 77.1 0 5.5.6 10.8 1.6 16C16.7 200.7 0 232.9 0 267.2c0 27.7 10.3 54.6 29.1 75.9 19.3 21.8 44.8 34.7 72 36.2h86.8c7.5 0 13.5-6 13.5-13.5s-6-13.5-13.5-13.5h-85.6C61.4 349.8 27 310.9 27 267.1c0-28.3 15.2-54.7 39.7-69 5.7-3.3 8.1-10.2 5.9-16.4-2-5.4-3-11.1-3-17.2 0-27.6 22.5-50.1 50.1-50.1 5.9 0 11.7 1 17.1 3 6.6 2.4 13.9-.6 16.9-6.9 18.7-39.7 59.1-65.3 103-65.3 59 0 107.7 44.2 113.3 102.8.6 6.1 5.2 11 11.2 12 44.5 7.6 78.1 48.7 78.1 95.6 0 49.7-39.1 92.9-87.3 96.6h-73.7c-7.5 0-13.5 6-13.5 13.5s6 13.5 13.5 13.5h75.2c30.5-2.2 59-16.2 80.2-39.6 21.1-23.2 32.6-53 32.6-84-.1-56.1-38.4-106-90.8-119.8z"/><path d="M324.2 280c5.3-5.3 5.3-13.8 0-19.1l-71.5-71.5c-2.5-2.5-6-4-9.5-4s-7 1.4-9.5 4l-71.5 71.5c-5.3 5.3-5.3 13.8 0 19.1 2.6 2.6 6.1 4 9.5 4s6.9-1.3 9.5-4l48.5-48.5v222.9c0 7.5 6 13.5 13.5 13.5s13.5-6 13.5-13.5V231.5l48.5 48.5c5.2 5.3 13.7 5.3 19 0z"/></symbol><symbol viewBox="0 0 124 124" id="027-menu" xmlns="http://www.w3.org/2000/svg"><path d="M112 6H12C5.4 6 0 11.4 0 18s5.4 12 12 12h100c6.6 0 12-5.4 12-12s-5.4-12-12-12zM112 50H12C5.4 50 0 55.4 0 62s5.4 12 12 12h100c6.6 0 12-5.4 12-12s-5.4-12-12-12zM112 94H12c-6.6 0-12 5.4-12 12s5.4 12 12 12h100c6.6 0 12-5.4 12-12s-5.4-12-12-12z"/></symbol><symbol viewBox="0 0 471.2 471.2" id="029-logout" xmlns="http://www.w3.org/2000/svg"><path d="M227.619 444.2h-122.9c-33.4 0-60.5-27.2-60.5-60.5V87.5c0-33.4 27.2-60.5 60.5-60.5h124.9c7.5 0 13.5-6 13.5-13.5s-6-13.5-13.5-13.5h-124.9c-48.3 0-87.5 39.3-87.5 87.5v296.2c0 48.3 39.3 87.5 87.5 87.5h122.9c7.5 0 13.5-6 13.5-13.5s-6.1-13.5-13.5-13.5z"/><path d="M450.019 226.1l-85.8-85.8c-5.3-5.3-13.8-5.3-19.1 0-5.3 5.3-5.3 13.8 0 19.1l62.8 62.8h-273.9c-7.5 0-13.5 6-13.5 13.5s6 13.5 13.5 13.5h273.9l-62.8 62.8c-5.3 5.3-5.3 13.8 0 19.1 2.6 2.6 6.1 4 9.5 4s6.9-1.3 9.5-4l85.8-85.8c5.4-5.4 5.4-14 .1-19.2z"/></symbol><symbol viewBox="0 0 50 50" id="030-menu-1" xmlns="http://www.w3.org/2000/svg"><path d="M0 3h50v2H0zM0 17h50v2H0zM0 31h50v2H0zM0 45h50v2H0z"/></symbol><symbol viewBox="0 0 56 56" id="032-login" xmlns="http://www.w3.org/2000/svg"><path d="M25.293 39.293a.999.999 0 101.414 1.414l11.999-11.999a1.001 1.001 0 000-1.417L26.707 15.293a.999.999 0 10-1.414 1.414L35.586 27H5a1 1 0 100 2h30.586L25.293 39.293z"/><path d="M51 0H14a1 1 0 00-1 1v21a1 1 0 102 0V2h35v52H15V34a1 1 0 10-2 0v21a1 1 0 001 1h37a1 1 0 001-1V1a1 1 0 00-1-1z"/></symbol><symbol viewBox="0 0 55 55" id="033-exit" xmlns="http://www.w3.org/2000/svg"><path d="M53.924 24.382a1.001 1.001 0 00-.217-1.091L41.708 11.293a.999.999 0 10-1.414 1.414L50.587 23H29.001a1 1 0 100 2h21.586L40.294 35.293a.999.999 0 101.414 1.414l11.999-11.999c.092-.092.166-.203.217-.326z"/><path d="M36.001 29a1 1 0 00-1 1v16h-10V8a1 1 0 00-.697-.953L8.442 2h26.559v16a1 1 0 102 0V1a1 1 0 00-1-1h-34c-.032 0-.06.015-.091.018-.056.005-.105.018-.158.032a.972.972 0 00-.259.108c-.026.016-.057.016-.082.034-.031.023-.055.052-.083.077-.017.016-.035.03-.051.047a1.04 1.04 0 00-.184.273c-.009.02-.014.04-.022.06a.998.998 0 00-.07.351v46c0 .125.029.243.072.355.014.037.035.068.053.103a.962.962 0 00.415.416c.037.02.071.041.111.056.017.006.03.018.047.024l22 7A1.002 1.002 0 0025.001 54v-6h11a1 1 0 001-1V30a1 1 0 00-1-1zm-13 23.633l-20-6.364V2.367l20 6.364v43.902z"/></symbol><symbol viewBox="0 0 512 512" id="036-mail" xmlns="http://www.w3.org/2000/svg"><path d="M467 61H45C20.218 61 0 81.196 0 106v300c0 24.72 20.128 45 45 45h422c24.72 0 45-20.128 45-45V106c0-24.72-20.128-45-45-45zm-6.214 30L256.954 294.833 51.359 91h409.427zM30 399.788V112.069l144.479 143.24L30 399.788zM51.213 421l144.57-144.57 50.657 50.222c5.864 5.814 15.327 5.795 21.167-.046L317 277.213 460.787 421H51.213zM482 399.787L338.213 256 482 112.212v287.575z"/></symbol></svg>