<?xml version="1.0" encoding="iso-8859-1"?><!DOCTYPE svg PUBLIC "-//W3C//DTD SVG 1.1//EN" "http://www.w3.org/Graphics/SVG/1.1/DTD/svg11.dtd"><svg xmlns="http://www.w3.org/2000/svg" xmlns:xlink="http://www.w3.org/1999/xlink"><symbol viewBox="0 0 451 451" id="001-magnifying-glass" xmlns="http://www.w3.org/2000/svg"><path d="M447.05 428l-109.6-109.6c29.4-33.8 47.2-77.9 47.2-126.1C384.65 86.2 298.35 0 192.35 0 86.25 0 .05 86.3.05 192.3s86.3 192.3 192.3 192.3c48.2 0 92.3-17.8 126.1-47.2L428.05 447c2.6 2.6 6.1 4 9.5 4s6.9-1.3 9.5-4c5.2-5.2 5.2-13.8 0-19zM26.95 192.3c0-91.2 74.2-165.3 165.3-165.3 91.2 0 165.3 74.2 165.3 165.3s-74.1 165.4-165.3 165.4c-91.1 0-165.3-74.2-165.3-165.4z"/></symbol><symbol viewBox="0 0 486.569 486.569" id="002-shopping-cart" xmlns="http://www.w3.org/2000/svg"><path d="M146.069 320.369h268.1c30.4 0 55.2-24.8 55.2-55.2v-112.8-.4-.8c0-.2 0-.4-.1-.6 0-.2-.1-.5-.1-.7s-.1-.4-.1-.6c-.1-.2-.1-.4-.2-.7-.1-.2-.1-.4-.2-.6-.1-.2-.1-.4-.2-.6-.1-.2-.2-.4-.3-.7-.1-.2-.2-.4-.3-.5l-.3-.6c-.1-.2-.2-.3-.3-.5-.1-.2-.3-.4-.4-.6-.1-.2-.2-.3-.4-.5-.1-.2-.3-.3-.4-.5s-.3-.3-.4-.5-.3-.3-.4-.4l-.5-.5c-.2-.1-.3-.3-.5-.4-.2-.1-.4-.3-.6-.4-.2-.1-.3-.2-.5-.3s-.4-.2-.6-.4l-.6-.3-.6-.3-.6-.3c-.2-.1-.4-.1-.6-.2-.2-.1-.5-.2-.7-.2s-.4-.1-.5-.1c-.3-.1-.5-.1-.8-.1-.1 0-.2-.1-.4-.1l-339.8-46.9v-47.4c0-.5 0-1-.1-1.4 0-.1 0-.2-.1-.4 0-.3-.1-.6-.1-.9-.1-.3-.1-.5-.2-.8 0-.2-.1-.3-.1-.5l-.3-.9c0-.1-.1-.3-.1-.4-.1-.3-.2-.5-.4-.8-.1-.1-.1-.3-.2-.4-.1-.2-.2-.4-.4-.6-.1-.2-.2-.3-.3-.5s-.2-.3-.3-.5-.3-.4-.4-.6l-.3-.3-.6-.6-.3-.3c-.2-.2-.4-.4-.7-.6-.1-.1-.3-.2-.4-.3-.2-.2-.4-.3-.6-.5-.3-.2-.6-.4-.8-.5-.1-.1-.2-.1-.3-.2-.4-.2-.9-.4-1.3-.6l-73.7-31c-6.9-2.9-14.8.3-17.7 7.2s.3 14.8 7.2 17.7l65.4 27.6v295.8c0 28 21 51.2 48.1 54.7-4.9 8.2-7.8 17.8-7.8 28 0 30.1 24.5 54.5 54.5 54.5s54.5-24.5 54.5-54.5c0-10-2.7-19.5-7.5-27.5h121.4c-4.8 8.1-7.5 17.5-7.5 27.5 0 30.1 24.5 54.5 54.5 54.5s54.5-24.5 54.5-54.5-24.5-54.5-54.5-54.5h-255c-15.6 0-28.2-12.7-28.2-28.2v-36.6c8.2 4.8 17.9 7.6 28.2 7.6zm67.2 111.6c0 15.2-12.4 27.5-27.5 27.5s-27.5-12.4-27.5-27.5 12.4-27.5 27.5-27.5 27.5 12.3 27.5 27.5zm215.4 0c0 15.2-12.4 27.5-27.5 27.5s-27.5-12.4-27.5-27.5 12.4-27.5 27.5-27.5 27.5 12.3 27.5 27.5zm-14.5-138.6h-268.1c-15.6 0-28.2-12.7-28.2-28.2v-145.9l324.5 44.7v101.1c0 15.7-12.7 28.3-28.2 28.3z"/></symbol><symbol viewBox="0 0 478.703 478.703" id="003-settings" xmlns="http://www.w3.org/2000/svg"><path d="M454.2 189.101l-33.6-5.7c-3.5-11.3-8-22.2-13.5-32.6l19.8-27.7c8.4-11.8 7.1-27.9-3.2-38.1l-29.8-29.8c-5.6-5.6-13-8.7-20.9-8.7-6.2 0-12.1 1.9-17.1 5.5l-27.8 19.8c-10.8-5.7-22.1-10.4-33.8-13.9l-5.6-33.2a29.54 29.54 0 00-29.2-24.7h-42.1c-14.5 0-26.8 10.4-29.2 24.7l-5.8 34c-11.2 3.5-22.1 8.1-32.5 13.7l-27.5-19.8c-5-3.6-11-5.5-17.2-5.5-7.9 0-15.4 3.1-20.9 8.7l-29.9 29.8c-10.2 10.2-11.6 26.3-3.2 38.1l20 28.1c-5.5 10.5-9.9 21.4-13.3 32.7l-33.2 5.6a29.54 29.54 0 00-24.7 29.2v42.1c0 14.5 10.4 26.8 24.7 29.2l34 5.8c3.5 11.2 8.1 22.1 13.7 32.5l-19.7 27.4c-8.4 11.8-7.1 27.9 3.2 38.1l29.8 29.8c5.6 5.6 13 8.7 20.9 8.7 6.2 0 12.1-1.9 17.1-5.5l28.1-20c10.1 5.3 20.7 9.6 31.6 13l5.6 33.6a29.54 29.54 0 0029.2 24.7h42.2c14.5 0 26.8-10.4 29.2-24.7l5.7-33.6c11.3-3.5 22.2-8 32.6-13.5l27.7 19.8c5 3.6 11 5.5 17.2 5.5 7.9 0 15.3-3.1 20.9-8.7l29.8-29.8c10.2-10.2 11.6-26.3 3.2-38.1l-19.8-27.8c5.5-10.5 10.1-21.4 13.5-32.6l33.6-5.6a29.54 29.54 0 0024.7-29.2v-42.1c.2-14.5-10.2-26.8-24.5-29.2zm-2.3 71.3c0 1.3-.9 2.4-2.2 2.6l-42 7c-5.3.9-9.5 4.8-10.8 9.9-3.8 14.7-9.6 28.8-17.4 41.9-2.7 4.6-2.5 10.3.6 14.7l24.7 34.8c.7 1 .6 2.5-.3 3.4l-29.8 29.8c-.7.7-1.4.8-1.9.8-.6 0-1.1-.2-1.5-.5l-34.7-24.7c-4.3-3.1-10.1-3.3-14.7-.6-13.1 7.8-27.2 13.6-41.9 17.4-5.2 1.3-9.1 5.6-9.9 10.8l-7.1 42c-.2 1.3-1.3 2.2-2.6 2.2h-42.1c-1.3 0-2.4-.9-2.6-2.2l-7-42c-.9-5.3-4.8-9.5-9.9-10.8-14.3-3.7-28.1-9.4-41-16.8-2.1-1.2-4.5-1.8-6.8-1.8-2.7 0-5.5.8-7.8 2.5l-35 24.9c-.5.3-1 .5-1.5.5-.4 0-1.2-.1-1.9-.8l-29.8-29.8c-.9-.9-1-2.3-.3-3.4l24.6-34.5c3.1-4.4 3.3-10.2.6-14.8-7.8-13-13.8-27.1-17.6-41.8-1.4-5.1-5.6-9-10.8-9.9l-42.3-7.2c-1.3-.2-2.2-1.3-2.2-2.6v-42.1c0-1.3.9-2.4 2.2-2.6l41.7-7c5.3-.9 9.6-4.8 10.9-10 3.7-14.7 9.4-28.9 17.1-42 2.7-4.6 2.4-10.3-.7-14.6l-24.9-35c-.7-1-.6-2.5.3-3.4l29.8-29.8c.7-.7 1.4-.8 1.9-.8.6 0 1.1.2 1.5.5l34.5 24.6c4.4 3.1 10.2 3.3 14.8.6 13-7.8 27.1-13.8 41.8-17.6 5.1-1.4 9-5.6 9.9-10.8l7.2-42.3c.2-1.3 1.3-2.2 2.6-2.2h42.1c1.3 0 2.4.9 2.6 2.2l7 41.7c.9 5.3 4.8 9.6 10 10.9 15.1 3.8 29.5 9.7 42.9 17.6 4.6 2.7 10.3 2.5 14.7-.6l34.5-24.8c.5-.3 1-.5 1.5-.5.4 0 1.2.1 1.9.8l29.8 29.8c.9.9 1 2.3.3 3.4l-24.7 34.7c-3.1 4.3-3.3 10.1-.6 14.7 7.8 13.1 13.6 27.2 17.4 41.9 1.3 5.2 5.6 9.1 10.8 9.9l42 7.1c1.3.2 2.2 1.3 2.2 2.6v42.1h-.1z"/><path d="M239.4 136.001c-57 0-103.3 46.3-103.3 103.3s46.3 103.3 103.3 103.3 103.3-46.3 103.3-103.3-46.3-103.3-103.3-103.3zm0 179.6c-42.1 0-76.3-34.2-76.3-76.3s34.2-76.3 76.3-76.3 76.3 34.2 76.3 76.3-34.2 76.3-76.3 76.3z"/></symbol><symbol viewBox="0 0 482.9 482.9" id="004-avatar" xmlns="http://www.w3.org/2000/svg"><path d="M239.7 260.2h3.2c29.3-.5 53-10.8 70.5-30.5 38.5-43.4 32.1-117.8 31.4-124.9-2.5-53.3-27.7-78.8-48.5-90.7C280.8 5.2 262.7.4 242.5 0H240.8c-11.1 0-32.9 1.8-53.8 13.7-21 11.9-46.6 37.4-49.1 91.1-.7 7.1-7.1 81.5 31.4 124.9 17.4 19.7 41.1 30 70.4 30.5zm-75.1-152.9c0-.3.1-.6.1-.8 3.3-71.7 54.2-79.4 76-79.4H241.9c27 .6 72.9 11.6 76 79.4 0 .3 0 .6.1.8.1.7 7.1 68.7-24.7 104.5-12.6 14.2-29.4 21.2-51.5 21.4h-1c-22-.2-38.9-7.2-51.4-21.4-31.7-35.6-24.9-103.9-24.8-104.5z"/><path d="M446.8 383.6v-.3c0-.8-.1-1.6-.1-2.5-.6-19.8-1.9-66.1-45.3-80.9-.3-.1-.7-.2-1-.3-45.1-11.5-82.6-37.5-83-37.8-6.1-4.3-14.5-2.8-18.8 3.3-4.3 6.1-2.8 14.5 3.3 18.8 1.7 1.2 41.5 28.9 91.3 41.7 23.3 8.3 25.9 33.2 26.6 56 0 .9 0 1.7.1 2.5.1 9-.5 22.9-2.1 30.9-16.2 9.2-79.7 41-176.3 41-96.2 0-160.1-31.9-176.4-41.1-1.6-8-2.3-21.9-2.1-30.9 0-.8.1-1.6.1-2.5.7-22.8 3.3-47.7 26.6-56 49.8-12.8 89.6-40.6 91.3-41.7 6.1-4.3 7.6-12.7 3.3-18.8-4.3-6.1-12.7-7.6-18.8-3.3-.4.3-37.7 26.3-83 37.8-.4.1-.7.2-1 .3-43.4 14.9-44.7 61.2-45.3 80.9 0 .9 0 1.7-.1 2.5v.3c-.1 5.2-.2 31.9 5.1 45.3 1 2.6 2.8 4.8 5.2 6.3 3 2 74.9 47.8 195.2 47.8s192.2-45.9 195.2-47.8c2.3-1.5 4.2-3.7 5.2-6.3 5-13.3 4.9-40 4.8-45.2z"/></symbol><symbol viewBox="0 0 483.3 483.3" id="005-envelope" xmlns="http://www.w3.org/2000/svg"><path d="M424.3 57.75H59.1c-32.6 0-59.1 26.5-59.1 59.1v249.6c0 32.6 26.5 59.1 59.1 59.1h365.1c32.6 0 59.1-26.5 59.1-59.1v-249.5c.1-32.6-26.4-59.2-59-59.2zm32.1 308.7c0 17.7-14.4 32.1-32.1 32.1H59.1c-17.7 0-32.1-14.4-32.1-32.1v-249.5c0-17.7 14.4-32.1 32.1-32.1h365.1c17.7 0 32.1 14.4 32.1 32.1v249.5h.1z"/><path d="M304.8 238.55l118.2-106c5.5-5 6-13.5 1-19.1-5-5.5-13.5-6-19.1-1l-163 146.3-31.8-28.4c-.1-.1-.2-.2-.2-.3-.7-.7-1.4-1.3-2.2-1.9L78.3 112.35c-5.6-5-14.1-4.5-19.1 1.1-5 5.6-4.5 14.1 1.1 19.1l119.6 106.9-119.1 111.5c-5.4 5.1-5.7 13.6-.6 19.1 2.7 2.8 6.3 4.3 9.9 4.3 3.3 0 6.6-1.2 9.2-3.6l120.9-113.1 32.8 29.3c2.6 2.3 5.8 3.4 9 3.4s6.5-1.2 9-3.5l33.7-30.2 120.2 114.2c2.6 2.5 6 3.7 9.3 3.7 3.6 0 7.1-1.4 9.8-4.2 5.1-5.4 4.9-14-.5-19.1l-118.7-112.7z"/></symbol><symbol viewBox="0 0 478.2 478.2" id="006-like" xmlns="http://www.w3.org/2000/svg"><path d="M457.575 325.1c9.8-12.5 14.5-25.9 13.9-39.7-.6-15.2-7.4-27.1-13-34.4 6.5-16.2 9-41.7-12.7-61.5-15.9-14.5-42.9-21-80.3-19.2-26.3 1.2-48.3 6.1-49.2 6.3h-.1c-5 .9-10.3 2-15.7 3.2-.4-6.4.7-22.3 12.5-58.1 14-42.6 13.2-75.2-2.6-97-16.6-22.9-43.1-24.7-50.9-24.7-7.5 0-14.4 3.1-19.3 8.8-11.1 12.9-9.8 36.7-8.4 47.7-13.2 35.4-50.2 122.2-81.5 146.3-.6.4-1.1.9-1.6 1.4-9.2 9.7-15.4 20.2-19.6 29.4-5.9-3.2-12.6-5-19.8-5h-61c-23 0-41.6 18.7-41.6 41.6v162.5c0 23 18.7 41.6 41.6 41.6h61c8.9 0 17.2-2.8 24-7.6l23.5 2.8c3.6.5 67.6 8.6 133.3 7.3 11.9.9 23.1 1.4 33.5 1.4 17.9 0 33.5-1.4 46.5-4.2 30.6-6.5 51.5-19.5 62.1-38.6 8.1-14.6 8.1-29.1 6.8-38.3 19.9-18 23.4-37.9 22.7-51.9-.4-8.1-2.2-15-4.1-20.1zm-409.3 122.2c-8.1 0-14.6-6.6-14.6-14.6V270.1c0-8.1 6.6-14.6 14.6-14.6h61c8.1 0 14.6 6.6 14.6 14.6v162.5c0 8.1-6.6 14.6-14.6 14.6h-61v.1zm383.7-133.9c-4.2 4.4-5 11.1-1.8 16.3 0 .1 4.1 7.1 4.6 16.7.7 13.1-5.6 24.7-18.8 34.6-4.7 3.6-6.6 9.8-4.6 15.4 0 .1 4.3 13.3-2.7 25.8-6.7 12-21.6 20.6-44.2 25.4-18.1 3.9-42.7 4.6-72.9 2.2h-1.4c-64.3 1.4-129.3-7-130-7.1h-.1l-10.1-1.2c.6-2.8.9-5.8.9-8.8V270.1c0-4.3-.7-8.5-1.9-12.4 1.8-6.7 6.8-21.6 18.6-34.3 44.9-35.6 88.8-155.7 90.7-160.9.8-2.1 1-4.4.6-6.7-1.7-11.2-1.1-24.9 1.3-29 5.3.1 19.6 1.6 28.2 13.5 10.2 14.1 9.8 39.3-1.2 72.7-16.8 50.9-18.2 77.7-4.9 89.5 6.6 5.9 15.4 6.2 21.8 3.9 6.1-1.4 11.9-2.6 17.4-3.5.4-.1.9-.2 1.3-.3 30.7-6.7 85.7-10.8 104.8 6.6 16.2 14.8 4.7 34.4 3.4 36.5-3.7 5.6-2.6 12.9 2.4 17.4.1.1 10.6 10 11.1 23.3.4 8.9-3.8 18-12.5 27z"/></symbol><symbol viewBox="0 0 471.701 471.701" id="007-heart" xmlns="http://www.w3.org/2000/svg"><path d="M433.601 67.001c-24.7-24.7-57.4-38.2-92.3-38.2s-67.7 13.6-92.4 38.3l-12.9 12.9-13.1-13.1c-24.7-24.7-57.6-38.4-92.5-38.4-34.8 0-67.6 13.6-92.2 38.2-24.7 24.7-38.3 57.5-38.2 92.4 0 34.9 13.7 67.6 38.4 92.3l187.8 187.8c2.6 2.6 6.1 4 9.5 4 3.4 0 6.9-1.3 9.5-3.9l188.2-187.5c24.7-24.7 38.3-57.5 38.3-92.4.1-34.9-13.4-67.7-38.1-92.4zm-19.2 165.7l-178.7 178-178.3-178.3c-19.6-19.6-30.4-45.6-30.4-73.3s10.7-53.7 30.3-73.2c19.5-19.5 45.5-30.3 73.1-30.3 27.7 0 53.8 10.8 73.4 30.4l22.6 22.6c5.3 5.3 13.8 5.3 19.1 0l22.4-22.4c19.6-19.6 45.7-30.4 73.3-30.4 27.6 0 53.6 10.8 73.2 30.3 19.6 19.6 30.3 45.6 30.3 73.3.1 27.7-10.7 53.7-30.3 73.3z"/></symbol><symbol viewBox="0 0 473.806 473.806" id="008-phone-call" xmlns="http://www.w3.org/2000/svg"><path d="M374.456 293.506c-9.7-10.1-21.4-15.5-33.8-15.5-12.3 0-24.1 5.3-34.2 15.4l-31.6 31.5c-2.6-1.4-5.2-2.7-7.7-4-3.6-1.8-7-3.5-9.9-5.3-29.6-18.8-56.5-43.3-82.3-75-12.5-15.8-20.9-29.1-27-42.6 8.2-7.5 15.8-15.3 23.2-22.8 2.8-2.8 5.6-5.7 8.4-8.5 21-21 21-48.2 0-69.2l-27.3-27.3c-3.1-3.1-6.3-6.3-9.3-9.5-6-6.2-12.3-12.6-18.8-18.6-9.7-9.6-21.3-14.7-33.5-14.7s-24 5.1-34 14.7l-.2.2-34 34.3c-12.8 12.8-20.1 28.4-21.7 46.5-2.4 29.2 6.2 56.4 12.8 74.2 16.2 43.7 40.4 84.2 76.5 127.6 43.8 52.3 96.5 93.6 156.7 122.7 23 10.9 53.7 23.8 88 26 2.1.1 4.3.2 6.3.2 23.1 0 42.5-8.3 57.7-24.8.1-.2.3-.3.4-.5 5.2-6.3 11.2-12 17.5-18.1 4.3-4.1 8.7-8.4 13-12.9 9.9-10.3 15.1-22.3 15.1-34.6 0-12.4-5.3-24.3-15.4-34.3l-54.9-55.1zm35.8 105.3c-.1 0-.1.1 0 0-3.9 4.2-7.9 8-12.2 12.2-6.5 6.2-13.1 12.7-19.3 20-10.1 10.8-22 15.9-37.6 15.9-1.5 0-3.1 0-4.6-.1-29.7-1.9-57.3-13.5-78-23.4-56.6-27.4-106.3-66.3-147.6-115.6-34.1-41.1-56.9-79.1-72-119.9-9.3-24.9-12.7-44.3-11.2-62.6 1-11.7 5.5-21.4 13.8-29.7l34.1-34.1c4.9-4.6 10.1-7.1 15.2-7.1 6.3 0 11.4 3.8 14.6 7l.3.3c6.1 5.7 11.9 11.6 18 17.9 3.1 3.2 6.3 6.4 9.5 9.7l27.3 27.3c10.6 10.6 10.6 20.4 0 31-2.9 2.9-5.7 5.8-8.6 8.6-8.4 8.6-16.4 16.6-25.1 24.4-.2.2-.4.3-.5.5-8.6 8.6-7 17-5.2 22.7l.3.9c7.1 17.2 17.1 33.4 32.3 52.7l.1.1c27.6 34 56.7 60.5 88.8 80.8 4.1 2.6 8.3 4.7 12.3 6.7 3.6 1.8 7 3.5 9.9 5.3.4.2.8.5 1.2.7 3.4 1.7 6.6 2.5 9.9 2.5 8.3 0 13.5-5.2 15.2-6.9l34.2-34.2c3.4-3.4 8.8-7.5 15.1-7.5 6.2 0 11.3 3.9 14.4 7.3l.2.2 55.1 55.1c10.3 10.2 10.3 20.7.1 31.3zM256.056 112.706c26.2 4.4 50 16.8 69 35.8s31.3 42.8 35.8 69c1.1 6.6 6.8 11.2 13.3 11.2.8 0 1.5-.1 2.3-.2 7.4-1.2 12.3-8.2 11.1-15.6-5.4-31.7-20.4-60.6-43.3-83.5s-51.8-37.9-83.5-43.3c-7.4-1.2-14.3 3.7-15.6 11s3.5 14.4 10.9 15.6zM473.256 209.006c-8.9-52.2-33.5-99.7-71.3-137.5s-85.3-62.4-137.5-71.3c-7.3-1.3-14.2 3.7-15.5 11-1.2 7.4 3.7 14.3 11.1 15.6 46.6 7.9 89.1 30 122.9 63.7 33.8 33.8 55.8 76.3 63.7 122.9 1.1 6.6 6.8 11.2 13.3 11.2.8 0 1.5-.1 2.3-.2 7.3-1.1 12.3-8.1 11-15.4z"/></symbol><symbol viewBox="0 0 477 477" id="009-placeholder" xmlns="http://www.w3.org/2000/svg"><path d="M238.4 0C133 0 47.2 85.8 47.2 191.2c0 12 1.1 24.1 3.4 35.9.1.7.5 2.8 1.3 6.4 2.9 12.9 7.2 25.6 12.8 37.7 20.6 48.5 65.9 123 165.3 202.8 2.5 2 5.5 3 8.5 3s6-1 8.5-3c99.3-79.8 144.7-154.3 165.3-202.8 5.6-12.1 9.9-24.7 12.8-37.7.8-3.6 1.2-5.7 1.3-6.4 2.2-11.8 3.4-23.9 3.4-35.9C429.6 85.8 343.8 0 238.4 0zm161.2 222.4c0 .2-.1.4-.1.6-.1.5-.4 2-.9 4.3v.2c-2.5 11.2-6.2 22.1-11.1 32.6-.1.1-.1.3-.2.4-18.7 44.3-59.7 111.9-148.9 185.6-89.2-73.7-130.2-141.3-148.9-185.6-.1-.1-.1-.3-.2-.4-4.8-10.4-8.5-21.4-11.1-32.6v-.2c-.6-2.3-.8-3.8-.9-4.3 0-.2-.1-.4-.1-.7-2-10.3-3-20.7-3-31.2 0-90.5 73.7-164.2 164.2-164.2s164.2 73.7 164.2 164.2c0 10.6-1 21.1-3 31.3z"/><path d="M238.4 71.9c-66.9 0-121.4 54.5-121.4 121.4s54.5 121.4 121.4 121.4 121.4-54.5 121.4-121.4S305.3 71.9 238.4 71.9zm0 215.8c-52.1 0-94.4-42.4-94.4-94.4s42.4-94.4 94.4-94.4 94.4 42.4 94.4 94.4-42.3 94.4-94.4 94.4z"/></symbol><symbol viewBox="0 0 486.196 486.196" id="010-house" xmlns="http://www.w3.org/2000/svg"><path d="M481.708 220.456l-228.8-204.6c-.4-.4-.8-.7-1.3-1-5-4.8-13-5-18.3-.3l-228.8 204.6c-5.6 5-6 13.5-1.1 19.1 2.7 3 6.4 4.5 10.1 4.5 3.2 0 6.4-1.1 9-3.4l41.2-36.9v238.6c0 18.7 15.2 34 34 34H169.908c17.6 0 31.9-14.3 31.9-31.9v-121.3c0-2.7 2.2-4.9 4.9-4.9h72.9c2.7 0 4.9 2.2 4.9 4.9v121.3c0 17.6 14.3 31.9 31.9 31.9h72.2c19 0 34-18.7 34-42.6v-228.7l41.2 36.9c2.6 2.3 5.8 3.4 9 3.4 3.7 0 7.4-1.5 10.1-4.5 4.8-5.6 4.3-14.1-1.2-19.1zm-86.2 66.7v145.1c0 9.7-4.8 15.6-7 15.6h-72.2c-2.7 0-4.9-2.2-4.9-4.9v-121.1c0-17.6-14.3-31.9-31.9-31.9h-72.9c-17.6 0-31.9 14.3-31.9 31.9v121.3c0 2.7-2.2 4.9-4.9 4.9H97.608c-3.8 0-7-3.1-7-7v-262.8l151.8-135.6 153.1 136.9v107.6z"/></symbol><symbol viewBox="0 0 49.652 49.652" id="011-facebook-logo-button" xmlns="http://www.w3.org/2000/svg"><path d="M24.826 0C11.137 0 0 11.137 0 24.826c0 13.688 11.137 24.826 24.826 24.826 13.688 0 24.826-11.138 24.826-24.826C49.652 11.137 38.516 0 24.826 0zM31 25.7h-4.039v14.396h-5.985V25.7h-2.845v-5.088h2.845v-3.291c0-2.357 1.12-6.04 6.04-6.04l4.435.017v4.939h-3.219c-.524 0-1.269.262-1.269 1.386v2.99h4.56L31 25.7z"/></symbol><symbol viewBox="0 0 49.652 49.652" id="012-instagram-logo" xmlns="http://www.w3.org/2000/svg"><path d="M24.825 29.796a4.978 4.978 0 004.972-4.97 4.954 4.954 0 00-.94-2.897 4.964 4.964 0 00-4.029-2.073c-1.659 0-3.126.82-4.031 2.072a4.947 4.947 0 00-.94 2.897 4.973 4.973 0 004.968 4.971zM35.678 18.746V13.96l-.623.002-4.164.013.016 4.787z"/><path d="M24.826 0C11.137 0 0 11.137 0 24.826c0 13.688 11.137 24.826 24.826 24.826 13.688 0 24.826-11.138 24.826-24.826C49.652 11.137 38.516 0 24.826 0zm14.119 21.929v11.56a5.463 5.463 0 01-5.457 5.458H16.164a5.462 5.462 0 01-5.457-5.458V16.165a5.462 5.462 0 015.457-5.457h17.323a5.463 5.463 0 015.458 5.457v5.764z"/><path d="M32.549 24.826c0 4.257-3.464 7.723-7.723 7.723s-7.722-3.466-7.722-7.723a7.67 7.67 0 01.568-2.897h-4.215v11.56a2.706 2.706 0 002.706 2.704h17.323a2.707 2.707 0 002.706-2.704v-11.56h-4.217c.367.894.574 1.873.574 2.897z"/></symbol><symbol viewBox="0 0 90 90" id="013-facebook-logo" xmlns="http://www.w3.org/2000/svg"><path d="M90 15.001C90 7.119 82.884 0 75 0H15C7.116 0 0 7.119 0 15.001v59.998C0 82.881 7.116 90 15.001 90H45V56H34V41h11v-5.844C45 25.077 52.568 16 61.875 16H74v15H61.875C60.548 31 59 32.611 59 35.024V41h15v15H59v34h16c7.884 0 15-7.119 15-15.001V15.001z"/></symbol><symbol viewBox="0 0 512 512" id="014-instagram" xmlns="http://www.w3.org/2000/svg"><path d="M352 0H160C71.648 0 0 71.648 0 160v192c0 88.352 71.648 160 160 160h192c88.352 0 160-71.648 160-160V160C512 71.648 440.352 0 352 0zm112 352c0 61.76-50.24 112-112 112H160c-61.76 0-112-50.24-112-112V160C48 98.24 98.24 48 160 48h192c61.76 0 112 50.24 112 112v192z"/><path d="M256 128c-70.688 0-128 57.312-128 128s57.312 128 128 128 128-57.312 128-128-57.312-128-128-128zm0 208c-44.096 0-80-35.904-80-80 0-44.128 35.904-80 80-80s80 35.872 80 80c0 44.096-35.904 80-80 80z"/><circle cx="393.6" cy="118.4" r="17.056"/></symbol><symbol viewBox="0 0 112.196 112.196" id="015-facebook" xmlns="http://www.w3.org/2000/svg"><circle cx="56.098" cy="56.098" r="56.098" fill="#3b5998"/><path d="M70.201 58.294h-10.01v36.672H45.025V58.294h-7.213V45.406h7.213v-8.34c0-5.964 2.833-15.303 15.301-15.303l11.234.047v12.51h-8.151c-1.337 0-3.217.668-3.217 3.513v7.585h11.334l-1.325 12.876z" fill="#fff"/></symbol><symbol viewBox="0 0 80.13 80.13" id="016-multiple-users-silhouette" xmlns="http://www.w3.org/2000/svg"><path d="M48.355 17.922c3.705 2.323 6.303 6.254 6.776 10.817a11.69 11.69 0 004.966 1.112c6.491 0 11.752-5.261 11.752-11.751 0-6.491-5.261-11.752-11.752-11.752-6.429.002-11.644 5.169-11.742 11.574zm-7.699 24.062c6.491 0 11.752-5.262 11.752-11.752s-5.262-11.751-11.752-11.751c-6.49 0-11.754 5.262-11.754 11.752s5.264 11.751 11.754 11.751zm4.985.801h-9.972c-8.297 0-15.047 6.751-15.047 15.048v12.195l.031.191.84.263c7.918 2.474 14.797 3.299 20.459 3.299 11.059 0 17.469-3.153 17.864-3.354l.785-.397h.084V57.833c.003-8.297-6.747-15.048-15.044-15.048zm19.443-12.132h-9.895a14.483 14.483 0 01-4.47 10.088c7.375 2.193 12.771 9.032 12.771 17.11v3.758c9.77-.358 15.4-3.127 15.771-3.313l.785-.398h.084V45.699c0-8.296-6.75-15.046-15.046-15.046zm-45.049-.8c2.299 0 4.438-.671 6.25-1.814a14.544 14.544 0 015.467-9.276c.012-.22.033-.438.033-.66 0-6.491-5.262-11.752-11.75-11.752-6.492 0-11.752 5.261-11.752 11.752 0 6.488 5.26 11.75 11.752 11.75zm10.554 10.888a14.492 14.492 0 01-4.467-10.032c-.367-.027-.73-.056-1.104-.056h-9.971C6.75 30.653 0 37.403 0 45.699v12.197l.031.188.84.265c6.352 1.983 12.021 2.897 16.945 3.185v-3.683c.002-8.078 5.396-14.915 12.773-17.11z"/></symbol><symbol viewBox="0 0 612 612" id="017-twitter-logo-silhouette" xmlns="http://www.w3.org/2000/svg"><path d="M612 116.258a250.714 250.714 0 01-72.088 19.772c25.929-15.527 45.777-40.155 55.184-69.411-24.322 14.379-51.169 24.82-79.775 30.48-22.907-24.437-55.49-39.658-91.63-39.658-69.334 0-125.551 56.217-125.551 125.513 0 9.828 1.109 19.427 3.251 28.606-104.326-5.24-196.835-55.223-258.75-131.174-10.823 18.51-16.98 40.078-16.98 63.101 0 43.559 22.181 81.993 55.835 104.479a125.556 125.556 0 01-56.867-15.756v1.568c0 60.806 43.291 111.554 100.693 123.104-10.517 2.83-21.607 4.398-33.08 4.398-8.107 0-15.947-.803-23.634-2.333 15.985 49.907 62.336 86.199 117.253 87.194-42.947 33.654-97.099 53.655-155.916 53.655-10.134 0-20.116-.612-29.944-1.721 55.567 35.681 121.536 56.485 192.438 56.485 230.948 0 357.188-191.291 357.188-357.188l-.421-16.253c24.666-17.593 46.005-39.697 62.794-64.861z" fill="#010002"/></symbol><symbol viewBox="0 0 480.56 480.56" id="018-telephone" xmlns="http://www.w3.org/2000/svg"><path d="M365.354 317.9c-15.7-15.5-35.3-15.5-50.9 0-11.9 11.8-23.8 23.6-35.5 35.6-3.2 3.3-5.9 4-9.8 1.8-7.7-4.2-15.9-7.6-23.3-12.2-34.5-21.7-63.4-49.6-89-81-12.7-15.6-24-32.3-31.9-51.1-1.6-3.8-1.3-6.3 1.8-9.4 11.9-11.5 23.5-23.3 35.2-35.1 16.3-16.4 16.3-35.6-.1-52.1-9.3-9.4-18.6-18.6-27.9-28-9.6-9.6-19.1-19.3-28.8-28.8-15.7-15.3-35.3-15.3-50.9.1-12 11.8-23.5 23.9-35.7 35.5-11.3 10.7-17 23.8-18.2 39.1-1.9 24.9 4.2 48.4 12.8 71.3 17.6 47.4 44.4 89.5 76.9 128.1 43.9 52.2 96.3 93.5 157.6 123.3 27.6 13.4 56.2 23.7 87.3 25.4 21.4 1.2 40-4.2 54.9-20.9 10.2-11.4 21.7-21.8 32.5-32.7 16-16.2 16.1-35.8.2-51.8-19-19.1-38.1-38.1-57.2-57.1zM346.254 238.2l36.9-6.3c-5.8-33.9-21.8-64.6-46.1-89-25.7-25.7-58.2-41.9-94-46.9l-5.2 37.1c27.7 3.9 52.9 16.4 72.8 36.3 18.8 18.8 31.1 42.6 35.6 68.8zM403.954 77.8c-42.6-42.6-96.5-69.5-156-77.8l-5.2 37.1c51.4 7.2 98 30.5 134.8 67.2 34.9 34.9 57.8 79 66.1 127.5l36.9-6.3c-9.7-56.2-36.2-107.2-76.6-147.7z"/></symbol><symbol viewBox="0 0 430.114 430.114" id="019-facebook-placeholder-for-locate-places-on-maps" xmlns="http://www.w3.org/2000/svg"><path d="M356.208 107.051c-1.531-5.738-4.64-11.852-6.94-17.205C321.746 23.704 261.611 0 213.055 0 148.054 0 76.463 43.586 66.905 133.427v18.355c0 .766.264 7.647.639 11.089 5.358 42.816 39.143 88.32 64.375 131.136 27.146 45.873 55.314 90.999 83.221 136.106 17.208-29.436 34.354-59.259 51.17-87.933 4.583-8.415 9.903-16.825 14.491-24.857 3.058-5.348 8.9-10.696 11.569-15.672 27.145-49.699 70.838-99.782 70.838-149.104v-20.262c.001-5.347-6.627-24.081-7-25.234zm-141.963 92.142c-19.107 0-40.021-9.554-50.344-35.939-1.538-4.2-1.414-12.617-1.414-13.388v-11.852c0-33.636 28.56-48.932 53.406-48.932 30.588 0 54.245 24.472 54.245 55.06 0 30.587-25.305 55.051-55.893 55.051z"/></symbol><symbol viewBox="0 0 96.124 96.123" id="020-facebook-logo-1" xmlns="http://www.w3.org/2000/svg"><path d="M72.089.02L59.624 0C45.62 0 36.57 9.285 36.57 23.656v10.907H24.037a1.96 1.96 0 00-1.96 1.961v15.803a1.96 1.96 0 001.96 1.96H36.57v39.876a1.96 1.96 0 001.96 1.96h16.352a1.96 1.96 0 001.96-1.96V54.287h14.654a1.96 1.96 0 001.96-1.96l.006-15.803a1.963 1.963 0 00-1.961-1.961H56.842v-9.246c0-4.444 1.059-6.7 6.848-6.7l8.397-.003a1.96 1.96 0 001.959-1.96V1.98A1.96 1.96 0 0072.089.02z"/></symbol><symbol viewBox="0 0 56.966 56.966" id="021-search" xmlns="http://www.w3.org/2000/svg"><path d="M55.146 51.887L41.588 37.786A22.926 22.926 0 0046.984 23c0-12.682-10.318-23-23-23s-23 10.318-23 23 10.318 23 23 23c4.761 0 9.298-1.436 13.177-4.162l13.661 14.208c.571.593 1.339.92 2.162.92.779 0 1.518-.297 2.079-.837a3.004 3.004 0 00.083-4.242zM23.984 6c9.374 0 17 7.626 17 17s-7.626 17-17 17-17-7.626-17-17 7.626-17 17-17z"/></symbol><symbol viewBox="0 0 35 35" id="022-smartphone-call" xmlns="http://www.w3.org/2000/svg"><path d="M25.302 0H9.698a2.37 2.37 0 00-2.364 2.364v30.271A2.371 2.371 0 009.698 35h15.604a2.37 2.37 0 002.364-2.364V2.364A2.37 2.37 0 0025.302 0zM15.004 1.704h4.992a.286.286 0 010 .573h-4.992a.286.286 0 110-.573zM17.5 33.818a1.182 1.182 0 110-2.364 1.182 1.182 0 010 2.364zm8.521-3.193H8.979V3.749h17.042v26.876z"/></symbol><symbol viewBox="0 0 350 350" id="023-man-user" xmlns="http://www.w3.org/2000/svg"><path d="M175 171.173c38.914 0 70.463-38.318 70.463-85.586C245.463 38.318 235.105 0 175 0s-70.465 38.318-70.465 85.587c0 47.268 31.549 85.586 70.465 85.586zM41.909 301.853c-.012-2.882-.024-.812 0 0zM308.085 304.104c.038-.789.013-5.474 0 0z"/><path d="M307.935 298.397c-1.305-82.342-12.059-105.805-94.352-120.657 0 0-11.584 14.761-38.584 14.761s-38.586-14.761-38.586-14.761C55.018 192.43 43.61 215.545 42.11 295.722c-.123 6.547-.18 6.891-.202 6.131.005 1.424.011 4.058.011 8.651 0 0 19.592 39.496 133.08 39.496 113.486 0 133.08-39.496 133.08-39.496 0-2.951.002-5.003.005-6.399-.022.47-.066-.441-.149-5.708z"/></symbol><symbol viewBox="0 0 447.632 447" id="024-global" xmlns="http://www.w3.org/2000/svg"><path d="M231.816 447.05c34.23-4.863 64.239-40.59 83.121-93.35a406.317 406.317 0 00-83.12-9.786zm0 0M286.504 438.66c2.023-.586 4.039-1.176 6.039-1.824 1.687-.543 3.352-1.129 5.016-1.711a203.39 203.39 0 005.882-2.121c1.664-.633 3.313-1.305 4.965-1.977 1.906-.8 3.809-1.597 5.692-2.398a240.401 240.401 0 0010.422-4.922c1.601-.816 3.199-1.648 4.8-2.504 1.793-.96 3.575-1.941 5.344-2.95a203.403 203.403 0 004.703-2.753c1.735-1.066 3.461-2.133 5.176-3.2a191.535 191.535 0 004.578-2.991 221.095 221.095 0 005.008-3.504 417.693 417.693 0 004.422-3.2 365.942 365.942 0 004.847-3.793c1.426-1.136 2.848-2.265 4.25-3.433 1.598-1.328 3.13-2.703 4.68-4.078 1.36-1.207 2.727-2.403 4.055-3.64 1.527-1.427 3.015-2.903 4.504-4.368 1.289-1.273 2.593-2.527 3.855-3.832.235-.242.457-.504.7-.754a268.883 268.883 0 00-54.817-21.094 198.517 198.517 0 01-51.129 83.024c.649-.168 1.297-.305 1.945-.473 1.711-.48 3.391-1.008 5.063-1.504zm0 0M447.633 231.684H351.71a414.882 414.882 0 01-16.152 110.68 278.228 278.228 0 0160.714 24.16 223.51 223.51 0 0051.36-134.84zm0 0M231.816 215.684h103.895a400.208 400.208 0 00-15.75-106.743 421.384 421.384 0 01-88.145 10.512zm0 0M231.816.316v103.137a406.589 406.589 0 0083.121-9.785C296.055 40.906 266.048 5.18 231.817.316zm0 0M231.816 327.914a421.648 421.648 0 0188.145 10.516 400.236 400.236 0 0015.75-106.746H231.816zm0 0M396.273 80.844a278.228 278.228 0 01-60.714 24.16 414.882 414.882 0 0116.152 110.68h95.922a223.577 223.577 0 00-51.36-134.84zm0 0M385.465 68.707c-.235-.238-.457-.496-.688-.742-1.265-1.305-2.578-2.563-3.867-3.832-1.484-1.465-2.965-2.945-4.496-4.367-1.324-1.235-2.695-2.403-4.055-3.633-1.55-1.375-3.101-2.762-4.695-4.09-1.383-1.168-2.8-2.285-4.207-3.406a171.24 171.24 0 00-4.89-3.825 220.477 220.477 0 00-4.383-3.199 192.844 192.844 0 00-5.055-3.547 200.251 200.251 0 00-4.535-2.957 190.441 190.441 0 00-5.219-3.257 223.26 223.26 0 00-4.664-2.727 220.848 220.848 0 00-5.39-2.984c-1.602-.801-3.2-1.672-4.801-2.473-1.84-.93-3.696-1.824-5.598-2.703a174.071 174.071 0 00-4.875-2.227c-1.895-.84-3.809-1.597-5.719-2.398a225.094 225.094 0 00-4.953-1.969 191.214 191.214 0 00-5.879-2.117 210.272 210.272 0 00-5.016-1.715c-2-.648-4-1.238-6.054-1.832-1.664-.488-3.336-.984-5.02-1.43-.644-.175-1.3-.312-1.949-.48a198.532 198.532 0 0151.129 83.023 268.485 268.485 0 0054.879-21.113zm0 0M0 215.684h95.922a415.035 415.035 0 0116.148-110.68 277.885 277.885 0 01-60.71-24.16A223.519 223.519 0 000 215.684zm0 0M215.816 447.05V343.915a406.589 406.589 0 00-83.12 9.785c18.878 52.762 48.89 88.488 83.12 93.352zm0 0M215.816 231.684H111.922a400.079 400.079 0 0015.75 106.746 421.097 421.097 0 0188.144-10.516zm0 0M215.816.316c-34.23 4.864-64.242 40.59-83.12 93.352a406.045 406.045 0 0083.12 9.785zm0 0M215.816 119.453a421.384 421.384 0 01-88.144-10.512 400.05 400.05 0 00-15.75 106.743h103.894zm0 0M168.113 6.79c-.648.167-1.297.304-1.945.472-1.695.453-3.367.957-5.055 1.445-2.008.586-4 1.176-6.015 1.816-1.7.551-3.371 1.137-5.043 1.72-1.957.69-3.918 1.378-5.856 2.112-1.672.641-3.32 1.305-4.976 1.985-1.903.8-3.809 1.601-5.688 2.398-1.648.723-3.277 1.48-4.91 2.242a223.908 223.908 0 00-5.512 2.68 228.526 228.526 0 00-10.137 5.457 149.244 149.244 0 00-4.718 2.75c-1.738 1.047-3.457 2.13-5.168 3.2-1.54.984-3.067 1.976-4.578 3a221.095 221.095 0 00-5.008 3.503 403.614 403.614 0 00-4.426 3.203c-1.637 1.23-3.2 2.512-4.848 3.79-1.421 1.136-2.855 2.265-4.246 3.44-1.601 1.321-3.12 2.688-4.664 4.056-1.367 1.218-2.746 2.402-4.082 3.664-1.52 1.418-3 2.89-4.484 4.351-1.29 1.274-2.602 2.531-3.867 3.84-.23.242-.453.508-.696.754a268.581 268.581 0 0054.817 21.098 198.45 198.45 0 0151.105-82.977zm0 0M66.719 383.234c1.488 1.465 2.969 2.946 4.496 4.371 1.328 1.23 2.695 2.399 4.058 3.63 1.551 1.378 3.102 2.761 4.696 4.09 1.383 1.16 2.793 2.28 4.207 3.405 1.601 1.297 3.199 2.586 4.894 3.833 1.442 1.082 2.907 2.128 4.371 3.203 1.672 1.199 3.36 2.398 5.063 3.55a214.813 214.813 0 004.535 2.961c1.73 1.11 3.457 2.2 5.219 3.254 1.543.93 3.101 1.84 4.664 2.73a208.275 208.275 0 005.39 2.981c1.598.801 3.2 1.672 4.801 2.473 1.84.93 3.696 1.824 5.598 2.707 1.601.754 3.226 1.496 4.875 2.223 1.894.84 3.805 1.597 5.719 2.398 1.648.672 3.289 1.336 4.953 1.969 1.941.746 3.91 1.441 5.879 2.12 1.664.583 3.328 1.169 5.015 1.712 2 .648 4 1.242 6.055 1.832 1.664.488 3.336.984 5.016 1.433.648.176 1.304.313 1.953.48a198.57 198.57 0 01-51.13-83.027 268.607 268.607 0 00-54.816 21.106c.235.238.458.496.692.742 1.2 1.297 2.492 2.555 3.797 3.824zm0 0M51.36 366.523a278.275 278.275 0 0160.71-24.16 415.035 415.035 0 01-16.148-110.68H0a223.552 223.552 0 0051.36 134.84zm0 0"/></symbol><symbol viewBox="0 0 512 512" id="025-team" xmlns="http://www.w3.org/2000/svg"><path d="M451.72 237.26c-17.422-8.71-50.087-8.811-51.469-8.811a7.5 7.5 0 000 15c8.429.001 32.902 1.299 44.761 7.228a7.502 7.502 0 006.708-13.417z"/><path d="M489.112 344.041l-30.975-8.85a3.145 3.145 0 01-2.271-3.011v-10.339a56.368 56.368 0 007.171-5.881c10.89-10.568 16.887-24.743 16.887-39.915v-14.267l2.995-5.989a47.846 47.846 0 005.024-21.286v-38.65a7.5 7.5 0 00-7.5-7.5H408.27c-26.244 0-47.596 21.352-47.596 47.596v.447a39.78 39.78 0 004.178 17.699l3.841 7.682v12.25c0 19.414 9.567 36.833 24.058 47.315l.002 10.836c0 1.671 0 2.363-6.193 4.133l-15.114 4.318-43.721-15.898a7.491 7.491 0 00-2.044-5.742l-13.971-14.678v-24.64a90.427 90.427 0 004.344-3.789c17.625-16.52 27.733-39.844 27.733-63.991v-19.678c5.322-11.581 8.019-23.836 8.019-36.457v-80.19a7.5 7.5 0 00-7.5-7.5H232.037c-39.51 0-71.653 32.144-71.653 71.653v16.039c0 12.621 2.697 24.876 8.019 36.457v16.931c0 28.036 12.466 53.294 32.077 69.946v25.22l-13.971 14.678a7.491 7.491 0 00-2.044 5.742l-46.145 16.779a39.33 39.33 0 00-9.272 4.858l-7.246-3.623c21.57-9.389 28.403-22.594 28.731-23.25a7.498 7.498 0 000-6.708c-5.407-10.814-6.062-30.635-6.588-46.561-.175-5.302-.341-10.311-.658-14.771-2.557-35.974-29.905-63.103-63.615-63.103s-61.059 27.128-63.615 63.103c-.317 4.461-.483 9.47-.658 14.773-.526 15.925-1.182 35.744-6.588 46.558a7.498 7.498 0 000 6.708c.328.656 7.147 13.834 28.76 23.234l-20.127 10.063C6.684 358.176 0 368.991 0 381.02v55.409a7.5 7.5 0 0015 0V381.02c0-6.312 3.507-11.987 9.152-14.81l25.063-12.531 8.718 8.285a31.466 31.466 0 0021.739 8.688 31.475 31.475 0 0021.739-8.688l8.717-8.284 8.172 4.086c-3.848 6.157-6.032 13.377-6.032 20.94v57.725a7.5 7.5 0 0015 0v-57.725c0-10.296 6.501-19.578 16.178-23.097l48.652-17.691 20.253 30.381a15.462 15.462 0 0011.383 6.835 15.458 15.458 0 0012.504-4.47l12.356-12.356v78.124a7.5 7.5 0 0015 0v-78.124l12.356 12.356a15.452 15.452 0 0010.957 4.547c.513 0 1.029-.025 1.546-.076a15.462 15.462 0 0011.384-6.835l20.254-30.38 48.651 17.691c9.676 3.519 16.178 12.801 16.178 23.097v57.725a7.5 7.5 0 0015 0v-57.725c0-10.428-4.143-20.208-11.093-27.441l1.853-.529c1.869-.534 4.419-1.265 6.979-2.52l19.149 19.149v69.066a7.5 7.5 0 0015 0v-69.066l19.016-19.016c1.011.514 2.073.948 3.191 1.267l30.976 8.85c7.07 2.02 12.009 8.567 12.009 15.921v62.044a7.5 7.5 0 0015 0v-62.044c0-14.018-9.412-26.497-22.888-30.348zM48.115 330.794c-14.029-5.048-21.066-11.778-24.07-15.453 2.048-5.354 3.376-11.486 4.275-17.959 4.136 9.917 11.063 18.383 19.795 24.423v8.989zm42.965 20.298c-6.397 6.078-16.418 6.077-22.813-.001l-6.975-6.628a15.518 15.518 0 001.824-7.324v-7.994a55.427 55.427 0 0016.558 2.517c5.757 0 11.316-.886 16.557-2.512l-.001 7.988c0 2.62.646 5.121 1.824 7.327l-6.974 6.627zm-11.404-34.43c-22.396 0-40.615-18.22-40.615-40.615a7.5 7.5 0 00-7.5-7.5c-.42 0-.83.043-1.231.11l.065-1.93c.167-5.157.328-10.028.625-14.206.958-13.476 6.343-25.894 15.163-34.968 8.899-9.156 20.793-14.198 33.491-14.198s24.591 5.042 33.491 14.198c8.82 9.074 14.205 21.492 15.163 34.968.296 4.177.458 9.047.628 14.203l.045 1.338c-8.16-12.572-20.762-21.837-37.045-27.069-15.043-4.833-27.981-4.534-28.527-4.52a7.5 7.5 0 00-5.191 2.291l-13.532 14.034a7.5 7.5 0 1010.798 10.412l11.26-11.677c9.697.474 40.894 4.102 53.027 30.819-3.053 19.688-19.975 34.31-40.115 34.31zm31.553 14.157l.001-8.945a55.477 55.477 0 0019.801-24.449c.899 6.458 2.226 12.576 4.27 17.918-2.987 3.64-10.057 10.43-24.072 15.476zm72.174-121.674v-18.608a7.501 7.501 0 00-.746-3.261c-4.826-9.994-7.273-20.598-7.273-31.518V139.72c0-31.239 25.415-56.653 56.653-56.653h104.769v72.692c0 10.92-2.447 21.524-7.273 31.518a7.501 7.501 0 00-.746 3.261v21.355c0 20.311-8.165 39.15-22.991 53.047a74.636 74.636 0 01-5.758 4.875c-.044.03-.086.063-.129.094-13.889 10.545-30.901 15.67-48.667 14.519-38.041-2.463-67.839-35.531-67.839-75.283zm42.229 150.911c-.052.052-.173.175-.418.149a.477.477 0 01-.381-.229l-23.325-34.988 7.506-7.887 35.385 24.187-18.767 18.768zm30.463-28.943l-40.615-27.762v-14c10.509 5.681 22.276 9.234 34.791 10.044 1.977.128 3.942.191 5.901.191 14.341 0 28.143-3.428 40.538-9.935v13.7l-40.615 27.762zm31.262 28.865a.477.477 0 01-.381.229c-.245.031-.365-.098-.418-.149l-18.767-18.767 35.385-24.188 7.507 7.887-23.326 34.988zm136.951-6.328l-17.02-17.019c.297-1.349.465-2.826.464-4.455l-.001-3.165a52.589 52.589 0 0016.579 2.65 55.71 55.71 0 0016.536-2.501v3.02c0 1.496.188 2.962.542 4.371l-17.1 17.099zm28.283-48.454c-7.949 7.714-18.45 11.788-29.537 11.446-21.704-.651-39.361-19.768-39.361-42.613v-14.021a7.493 7.493 0 00-.792-3.354l-4.633-9.266a24.706 24.706 0 01-2.594-10.991v-.447c0-17.974 14.623-32.596 32.596-32.596h64.673v31.15a32.77 32.77 0 01-3.441 14.578l-3.786 7.572a7.496 7.496 0 00-.792 3.354v16.038c0 11.08-4.38 21.432-12.333 29.15z"/><path d="M472.423 380.814a7.5 7.5 0 00-7.5 7.5v48.115a7.5 7.5 0 0015 0v-48.115a7.5 7.5 0 00-7.5-7.5zM39.577 390.728a7.5 7.5 0 00-7.5 7.5v38.201a7.5 7.5 0 0015 0v-38.201a7.5 7.5 0 00-7.5-7.5zM317.532 158.475c-28.366-28.366-87.715-22.943-111.917-19.295-7.623 1.149-13.155 7.6-13.155 15.339v17.278a7.5 7.5 0 0015 0v-17.279c0-.255.168-.473.392-.507 9.667-1.457 28.85-3.705 48.725-2.38 23.388 1.557 40.328 7.428 50.349 17.45a7.5 7.5 0 0010.606 0 7.5 7.5 0 000-10.606zM167.884 396.853a7.5 7.5 0 00-7.5 7.5v32.077a7.5 7.5 0 0015 0v-32.077a7.5 7.5 0 00-7.5-7.5zM344.306 396.853a7.5 7.5 0 00-7.5 7.5v32.077a7.5 7.5 0 0015 0v-32.077a7.5 7.5 0 00-7.5-7.5z"/></symbol><symbol viewBox="0 0 512.076 512.076" id="026-call" xmlns="http://www.w3.org/2000/svg"><path d="M498.639 395.039l-103.646-69.12c-13.153-8.701-30.784-5.838-40.508 6.579l-30.191 38.818a12.903 12.903 0 01-16.546 3.482l-5.743-3.166c-19.038-10.377-42.726-23.296-90.453-71.04s-60.672-71.45-71.049-90.453l-3.149-5.743a12.92 12.92 0 013.413-16.606l38.792-30.182c12.412-9.725 15.279-27.351 6.588-40.508l-69.12-103.646C108.12.056 90.25-3.966 76.461 4.323L33.12 30.358A61.136 61.136 0 005.242 66.539c-15.607 56.866-3.866 155.008 140.706 299.597 115.004 114.995 200.619 145.92 259.465 145.92a151.181 151.181 0 0040.107-5.239 61.079 61.079 0 0036.181-27.878l26.061-43.315c8.301-13.792 4.281-31.673-9.123-40.585zm-5.581 31.829l-26.001 43.341a44.103 44.103 0 01-26.027 20.173c-52.497 14.413-144.213 2.475-283.008-136.32S7.29 123.559 21.703 71.054a44.17 44.17 0 0120.198-26.061l43.341-26.001c5.983-3.6 13.739-1.855 17.604 3.959l37.547 56.371 31.514 47.266c3.774 5.707 2.534 13.356-2.85 17.579l-38.801 30.182c-11.808 9.029-15.18 25.366-7.91 38.332l3.081 5.598c10.906 20.002 24.465 44.885 73.967 94.379 49.502 49.493 74.377 63.053 94.37 73.958l5.606 3.089c12.965 7.269 29.303 3.898 38.332-7.91l30.182-38.801c4.224-5.381 11.87-6.62 17.579-2.85l103.637 69.12c5.818 3.862 7.563 11.622 3.958 17.604zM290.161 85.39c80.081.089 144.977 64.986 145.067 145.067 0 4.713 3.82 8.533 8.533 8.533s8.533-3.82 8.533-8.533c-.099-89.503-72.63-162.035-162.133-162.133-4.713 0-8.533 3.82-8.533 8.533s3.82 8.533 8.533 8.533z"/><path d="M290.161 136.59c51.816.061 93.806 42.051 93.867 93.867a8.533 8.533 0 0017.066 0c-.071-61.238-49.696-110.863-110.933-110.933-4.713 0-8.533 3.82-8.533 8.533s3.82 8.533 8.533 8.533z"/><path d="M290.161 187.79c23.552.028 42.638 19.114 42.667 42.667a8.533 8.533 0 0017.066 0c-.038-32.974-26.759-59.696-59.733-59.733-4.713 0-8.533 3.82-8.533 8.533s3.82 8.533 8.533 8.533z"/></symbol><symbol viewBox="0 0 460.298 460.297" id="027-home" xmlns="http://www.w3.org/2000/svg"><path d="M230.149 120.939L65.986 256.274c0 .191-.048.472-.144.855-.094.38-.144.656-.144.852v137.041c0 4.948 1.809 9.236 5.426 12.847 3.616 3.613 7.898 5.431 12.847 5.431h109.63V303.664h73.097v109.64h109.629c4.948 0 9.236-1.814 12.847-5.435 3.617-3.607 5.432-7.898 5.432-12.847V257.981c0-.76-.104-1.334-.288-1.707L230.149 120.939z"/><path d="M457.122 225.438L394.6 173.476V56.989c0-2.663-.856-4.853-2.574-6.567-1.704-1.712-3.894-2.568-6.563-2.568h-54.816c-2.666 0-4.855.856-6.57 2.568-1.711 1.714-2.566 3.905-2.566 6.567v55.673l-69.662-58.245c-6.084-4.949-13.318-7.423-21.694-7.423-8.375 0-15.608 2.474-21.698 7.423L3.172 225.438c-1.903 1.52-2.946 3.566-3.14 6.136-.193 2.568.472 4.811 1.997 6.713l17.701 21.128c1.525 1.712 3.521 2.759 5.996 3.142 2.285.192 4.57-.476 6.855-1.998L230.149 95.817l197.57 164.741c1.526 1.328 3.521 1.991 5.996 1.991h.858c2.471-.376 4.463-1.43 5.996-3.138l17.703-21.125c1.522-1.906 2.189-4.145 1.991-6.716-.195-2.563-1.242-4.609-3.141-6.132z"/></symbol><symbol viewBox="0 0 52 52" id="028-placeholder-1" xmlns="http://www.w3.org/2000/svg"><path d="M38.853 5.324c-7.098-7.098-18.607-7.098-25.706 0C6.751 11.72 6.031 23.763 11.459 31L26 52l14.541-21c5.428-7.237 4.708-19.28-1.688-25.676zM26.177 24a6 6 0 110-12 6 6 0 010 12z" fill="#1081e0"/></symbol><symbol viewBox="0 0 55 55" id="029-user" xmlns="http://www.w3.org/2000/svg"><path d="M55 27.5C55 12.337 42.663 0 27.5 0S0 12.337 0 27.5c0 8.009 3.444 15.228 8.926 20.258l-.026.023.892.752c.058.049.121.089.179.137.474.393.965.766 1.465 1.127.162.117.324.234.489.348.534.368 1.082.717 1.642 1.048.122.072.245.142.368.212a27.44 27.44 0 001.88.98l.142.064a27.252 27.252 0 006.651 2.105l.184.033c.724.125 1.456.225 2.197.292.09.008.18.013.271.021.738.061 1.484.1 2.24.1.749 0 1.488-.039 2.222-.098l.279-.021a27.808 27.808 0 002.178-.287l.187-.034a27.251 27.251 0 006.557-2.055c.076-.035.153-.068.229-.104a27.639 27.639 0 002.25-1.189 27.514 27.514 0 001.581-1c.185-.126.366-.259.549-.391.439-.316.87-.642 1.289-.983.093-.075.193-.14.284-.217l.915-.764-.027-.023C51.523 42.802 55 35.55 55 27.5zm-53 0C2 13.439 13.439 2 27.5 2S53 13.439 53 27.5c0 7.577-3.325 14.389-8.589 19.063a7.494 7.494 0 00-.893-.537l-8.467-4.233a2.217 2.217 0 01-1.232-1.993v-2.957c.196-.242.403-.516.617-.817a20.378 20.378 0 002.616-5.123 3.63 3.63 0 002.085-3.289v-3.545c0-.867-.318-1.708-.887-2.369v-4.667c.052-.519.236-3.448-1.883-5.864C34.524 9.065 31.541 8 27.5 8s-7.024 1.065-8.867 3.168c-2.119 2.416-1.935 5.345-1.883 5.864v4.667a3.644 3.644 0 00-.887 2.369v3.545c0 1.101.494 2.128 1.34 2.821.81 3.173 2.477 5.575 3.093 6.389v2.894a2.23 2.23 0 01-1.162 1.958l-7.907 4.313a7.227 7.227 0 00-.752.476C5.276 41.792 2 35.022 2 27.5zm40.459 20.632c-.35.254-.706.5-1.067.735-.166.108-.331.216-.5.321-.472.292-.952.57-1.442.83-.108.057-.217.111-.326.167a25.481 25.481 0 01-3.488 1.476l-.127.043c-.627.208-1.262.393-1.904.552l-.006.001a25.59 25.59 0 01-1.964.402l-.054.01c-.621.101-1.247.174-1.875.229-.111.01-.222.017-.334.025-.621.047-1.245.077-1.872.077a25.43 25.43 0 01-1.895-.078c-.109-.008-.218-.015-.326-.025a25.862 25.862 0 01-1.89-.233l-.084-.015a25.405 25.405 0 01-3.89-.971l-.118-.04a25.86 25.86 0 01-1.862-.713l-.013-.006a26.094 26.094 0 01-1.705-.816c-.073-.038-.147-.074-.219-.113a25.7 25.7 0 01-1.939-1.155 25.417 25.417 0 01-1.338-.933l-.133-.104.096-.054 7.907-4.313a4.229 4.229 0 002.205-3.714l-.001-3.602-.23-.278c-.022-.025-2.184-2.655-3.001-6.216l-.091-.396-.341-.221a1.657 1.657 0 01-.769-1.392v-3.545c0-.465.197-.898.557-1.223l.33-.298v-5.57l-.009-.131c-.003-.024-.298-2.429 1.396-4.36C21.583 10.837 24.061 10 27.5 10c3.426 0 5.896.83 7.346 2.466 1.692 1.911 1.415 4.361 1.413 4.381l-.009 5.701.33.298c.359.324.557.758.557 1.223v3.545a1.67 1.67 0 01-1.181 1.575l-.497.153-.16.495a18.5 18.5 0 01-2.496 5.032c-.262.37-.517.698-.736.949l-.248.283V39.8c0 1.612.896 3.062 2.338 3.782l8.467 4.233.16.083c-.107.081-.217.156-.325.234z"/></symbol><symbol viewBox="0 0 512 512" id="030-hand-shake" xmlns="http://www.w3.org/2000/svg"><path d="M404.267 315.41c-10.048-20.949-45.995-50.027-80.725-78.123-19.371-15.659-37.675-30.464-49.344-42.133-2.923-2.944-7.296-3.883-11.157-2.496-7.189 2.603-11.627 4.608-15.125 6.165-5.333 2.389-7.125 3.2-14.315 3.925a10.663 10.663 0 00-7.808 4.672c-15.083 22.549-30.699 20.629-41.131 17.131-3.328-1.109-3.925-2.539-4.245-3.904-2.24-9.365 9.003-31.168 23.573-45.739 34.667-34.688 52.544-43.371 90.304-26.496 42.837 19.157 85.76 34.155 86.187 34.304a10.654 10.654 0 0013.589-6.571c1.92-5.568-1.003-11.648-6.571-13.589-.427-.149-42.496-14.848-84.48-33.643-48.917-21.867-75.755-7.467-114.091 30.891-14.592 14.592-34.411 44.117-29.291 65.771 2.197 9.216 8.683 16.043 18.325 19.221 24.171 7.979 46.229.341 62.656-21.461 6.784-1.045 10.475-2.581 16.021-5.077a209.95 209.95 0 017.467-3.2c12.203 11.456 28.672 24.789 46.016 38.805 31.36 25.365 66.923 54.123 74.923 70.763 3.947 8.213-.299 13.568-3.179 16.021-4.224 3.627-10.005 4.779-13.141 2.581-3.456-2.368-7.957-2.517-11.52-.384a10.66 10.66 0 00-5.141 10.304c.725 6.784-5.483 10.667-8.171 12.011-6.827 3.456-13.952 2.859-16.619.384-2.987-2.773-7.275-3.584-11.072-2.176-3.797 1.429-6.443 4.928-6.827 8.981-.64 6.997-5.824 13.717-12.587 16.341-3.264 1.237-8 1.984-12.245-1.899a10.791 10.791 0 00-9.749-2.475 10.65 10.65 0 00-7.488 6.72c-.405 1.067-1.323 3.627-11.307 3.627-7.104 0-19.883-4.8-26.133-8.939-7.488-4.928-54.443-39.957-94.997-73.92-5.696-4.8-15.552-15.083-24.256-24.171-7.723-8.064-14.784-15.381-18.411-18.453-4.544-3.84-11.264-3.264-15.04 1.259-3.797 4.501-3.243 11.243 1.259 15.04 3.307 2.795 9.707 9.557 16.768 16.917 9.515 9.941 19.349 20.224 25.963 25.771 39.723 33.259 87.467 69.163 96.981 75.413 7.851 5.163 24.768 12.416 37.867 12.416 10.517 0 18.603-2.411 24.213-7.125 7.509 2.923 16.043 2.944 24.256-.256 9.707-3.755 17.685-11.328 22.208-20.501 8.405 1.792 18.027.533 26.773-3.861 8.555-4.309 14.741-10.901 17.813-18.603 8.491.448 17.237-2.56 24.469-8.768 12.247-10.474 15.617-26.772 8.535-41.471z"/><path d="M213.333 138.663h-96c-5.888 0-10.667 4.779-10.667 10.667s4.779 10.667 10.667 10.667h96c5.888 0 10.667-4.779 10.667-10.667s-4.779-10.667-10.667-10.667zM435.52 292.711c-3.307-4.885-9.92-6.229-14.805-2.901l-31.189 20.949c-4.885 3.285-6.187 9.92-2.901 14.805a10.717 10.717 0 008.875 4.715c2.027 0 4.096-.576 5.931-1.813l31.189-20.949c4.884-3.286 6.185-9.92 2.9-14.806zM369.301 343.613c-7.637-6.016-41.792-40.981-62.912-62.997-4.075-4.267-10.837-4.416-15.083-.32-4.267 4.075-4.395 10.837-.32 15.083 5.483 5.717 53.845 56.128 65.088 65.003a10.623 10.623 0 006.592 2.283c3.136 0 6.272-1.408 8.405-4.075 3.649-4.609 2.86-11.329-1.77-14.977zM326.677 365.01c-12.779-10.219-44.885-44.331-52.139-52.224-4.011-4.352-10.731-4.608-15.083-.64-4.331 3.989-4.629 10.752-.64 15.083.384.405 38.699 41.771 54.528 54.443a10.72 10.72 0 006.656 2.325c3.115 0 6.229-1.387 8.341-3.989 3.671-4.609 2.924-11.329-1.663-14.998zM284.224 386.493c-15.211-12.821-46.336-45.952-52.416-52.459-4.032-4.309-10.795-4.544-15.083-.512-4.309 4.032-4.523 10.773-.512 15.083 8.747 9.365 38.528 40.939 54.251 54.208a10.638 10.638 0 006.869 2.517c3.029 0 6.059-1.301 8.171-3.797 3.797-4.523 3.221-11.243-1.28-15.04z"/><path d="M124.672 120.253C106.389 102.93 33.28 97.319 11.307 96.018c-3.029-.149-5.824.853-7.957 2.88A10.662 10.662 0 000 106.663v192c0 5.888 4.779 10.667 10.667 10.667h64c4.608 0 8.704-2.965 10.133-7.36 1.557-4.779 38.315-117.589 43.157-173.056.278-3.243-.917-6.443-3.285-8.661zM66.88 287.997H21.333V118.098c34.283 2.709 71.275 8.597 84.715 15.125-5.653 46.72-31.232 129.728-39.168 154.774zM501.333 117.33c-83.755 0-130.219 21.44-132.16 22.336-2.773 1.301-4.843 3.712-5.696 6.635s-.427 6.059 1.173 8.661c13.184 21.227 54.464 139.115 62.4 167.872a10.665 10.665 0 0010.283 7.829h64c5.888 0 10.667-4.779 10.667-10.667v-192a10.657 10.657 0 00-10.667-10.666zm-10.666 192h-45.355c-10.112-32.939-39.979-118.827-56.64-154.325 16.277-5.525 51.243-15.019 101.995-16.213V309.33z"/></symbol><symbol viewBox="0 0 455.73 455.73" id="031-instagram-1" xmlns="http://www.w3.org/2000/svg"><path d="M227.86 182.55c-24.98 0-45.32 20.33-45.32 45.31 0 24.99 20.34 45.33 45.32 45.33 24.99 0 45.32-20.34 45.32-45.33 0-24.98-20.33-45.31-45.32-45.31zm0 0c-24.98 0-45.32 20.33-45.32 45.31 0 24.99 20.34 45.33 45.32 45.33 24.99 0 45.32-20.34 45.32-45.33 0-24.98-20.33-45.31-45.32-45.31zm75.5-73.89H152.37c-24.1 0-43.71 19.61-43.71 43.71v150.99c0 24.1 19.61 43.71 43.71 43.71h150.99c24.1 0 43.71-19.61 43.71-43.71V152.37c0-24.1-19.61-43.71-43.71-43.71zm-75.5 197.69c-43.27 0-78.48-35.21-78.48-78.49 0-43.27 35.21-78.48 78.48-78.48 43.28 0 78.49 35.21 78.49 78.48 0 43.28-35.21 78.49-78.49 78.49zm81.01-140.74c-10.24 0-18.57-8.33-18.57-18.57s8.33-18.57 18.57-18.57 18.57 8.33 18.57 18.57-8.33 18.57-18.57 18.57zm-81.01 16.94c-24.98 0-45.32 20.33-45.32 45.31 0 24.99 20.34 45.33 45.32 45.33 24.99 0 45.32-20.34 45.32-45.33 0-24.98-20.33-45.31-45.32-45.31zm75.5-73.89H152.37c-24.1 0-43.71 19.61-43.71 43.71v150.99c0 24.1 19.61 43.71 43.71 43.71h150.99c24.1 0 43.71-19.61 43.71-43.71V152.37c0-24.1-19.61-43.71-43.71-43.71zm-75.5 197.69c-43.27 0-78.48-35.21-78.48-78.49 0-43.27 35.21-78.48 78.48-78.48 43.28 0 78.49 35.21 78.49 78.48 0 43.28-35.21 78.49-78.49 78.49zm81.01-140.74c-10.24 0-18.57-8.33-18.57-18.57s8.33-18.57 18.57-18.57 18.57 8.33 18.57 18.57-8.33 18.57-18.57 18.57zm-81.01 16.94c-24.98 0-45.32 20.33-45.32 45.31 0 24.99 20.34 45.33 45.32 45.33 24.99 0 45.32-20.34 45.32-45.33 0-24.98-20.33-45.31-45.32-45.31zM0 0v455.73h455.73V0H0zm380.23 303.36c0 42.39-34.48 76.87-76.87 76.87H152.37c-42.39 0-76.87-34.48-76.87-76.87V152.37c0-42.39 34.48-76.87 76.87-76.87h150.99c42.39 0 76.87 34.48 76.87 76.87v150.99zm-76.87-194.7H152.37c-24.1 0-43.71 19.61-43.71 43.71v150.99c0 24.1 19.61 43.71 43.71 43.71h150.99c24.1 0 43.71-19.61 43.71-43.71V152.37c0-24.1-19.61-43.71-43.71-43.71zm-75.5 197.69c-43.27 0-78.48-35.21-78.48-78.49 0-43.27 35.21-78.48 78.48-78.48 43.28 0 78.49 35.21 78.49 78.48 0 43.28-35.21 78.49-78.49 78.49zm81.01-140.74c-10.24 0-18.57-8.33-18.57-18.57s8.33-18.57 18.57-18.57 18.57 8.33 18.57 18.57-8.33 18.57-18.57 18.57zm-81.01 16.94c-24.98 0-45.32 20.33-45.32 45.31 0 24.99 20.34 45.33 45.32 45.33 24.99 0 45.32-20.34 45.32-45.33 0-24.98-20.33-45.31-45.32-45.31zm0 0c-24.98 0-45.32 20.33-45.32 45.31 0 24.99 20.34 45.33 45.32 45.33 24.99 0 45.32-20.34 45.32-45.33 0-24.98-20.33-45.31-45.32-45.31zm0 0c-24.98 0-45.32 20.33-45.32 45.31 0 24.99 20.34 45.33 45.32 45.33 24.99 0 45.32-20.34 45.32-45.33 0-24.98-20.33-45.31-45.32-45.31zm75.5-73.89H152.37c-24.1 0-43.71 19.61-43.71 43.71v150.99c0 24.1 19.61 43.71 43.71 43.71h150.99c24.1 0 43.71-19.61 43.71-43.71V152.37c0-24.1-19.61-43.71-43.71-43.71zm-75.5 197.69c-43.27 0-78.48-35.21-78.48-78.49 0-43.27 35.21-78.48 78.48-78.48 43.28 0 78.49 35.21 78.49 78.48 0 43.28-35.21 78.49-78.49 78.49zm81.01-140.74c-10.24 0-18.57-8.33-18.57-18.57s8.33-18.57 18.57-18.57 18.57 8.33 18.57 18.57-8.33 18.57-18.57 18.57zm-81.01 16.94c-24.98 0-45.32 20.33-45.32 45.31 0 24.99 20.34 45.33 45.32 45.33 24.99 0 45.32-20.34 45.32-45.33 0-24.98-20.33-45.31-45.32-45.31zm0 0c-24.98 0-45.32 20.33-45.32 45.31 0 24.99 20.34 45.33 45.32 45.33 24.99 0 45.32-20.34 45.32-45.33 0-24.98-20.33-45.31-45.32-45.31zm0 0c-24.98 0-45.32 20.33-45.32 45.31 0 24.99 20.34 45.33 45.32 45.33 24.99 0 45.32-20.34 45.32-45.33 0-24.98-20.33-45.31-45.32-45.31zm75.5-73.89H152.37c-24.1 0-43.71 19.61-43.71 43.71v150.99c0 24.1 19.61 43.71 43.71 43.71h150.99c24.1 0 43.71-19.61 43.71-43.71V152.37c0-24.1-19.61-43.71-43.71-43.71zm-75.5 197.69c-43.27 0-78.48-35.21-78.48-78.49 0-43.27 35.21-78.48 78.48-78.48 43.28 0 78.49 35.21 78.49 78.48 0 43.28-35.21 78.49-78.49 78.49zm81.01-140.74c-10.24 0-18.57-8.33-18.57-18.57s8.33-18.57 18.57-18.57 18.57 8.33 18.57 18.57-8.33 18.57-18.57 18.57zm-81.01 16.94c-24.98 0-45.32 20.33-45.32 45.31 0 24.99 20.34 45.33 45.32 45.33 24.99 0 45.32-20.34 45.32-45.33 0-24.98-20.33-45.31-45.32-45.31z" fill="#c536a4"/></symbol><symbol viewBox="0 0 455.731 455.731" id="032-vimeo" xmlns="http://www.w3.org/2000/svg"><path fill="#1ab7ea" d="M0 0h455.731v455.731H0z"/><path d="M49.642 157.084l17.626 22.474s22.033-17.186 29.965-17.186c4.927 0 15.423 5.729 22.033 25.558 6.61 19.83 34.441 122.62 36.134 127.351 7.607 21.26 17.626 60.811 48.473 66.54s70.065-25.558 91.657-48.473c21.592-22.914 106.64-120.741 110.165-179.349 3.26-54.191-14.517-66.765-22.474-71.828-14.542-9.254-38.778-12.338-61.692-4.407s-57.726 33.931-66.98 80.2c0 0 31.287-11.457 42.744-.441s8.373 35.253-1.322 53.32-37.015 59.93-47.151 61.252c-10.135 1.322-18.067-18.508-19.389-23.796-1.322-5.288-18.067-77.997-24.236-120.3s-33.049-49.354-45.829-49.354c-12.779.001-34.812 9.696-109.724 78.439z" fill="#fff"/></symbol><symbol viewBox="0 0 512.001 512.001" id="033-chatting" xmlns="http://www.w3.org/2000/svg"><path d="M247.173 35.31h211.862c19.421 0 35.31 15.89 35.31 35.31v123.586c0 19.421-15.89 35.31-35.31 35.31H344.276v33.482c0 3.933-4.755 5.901-7.534 3.121l-36.604-36.602h-52.966c-19.421 0-35.31-15.89-35.31-35.31V70.621c.001-19.421 15.89-35.311 35.311-35.311z" fill="#c7cfe2"/><path d="M449.906 105.931H317.794V88.276h70.321c4.701 0 8.804-3.548 9.109-8.238a8.827 8.827 0 00-8.809-9.417h-70.621V35.31h-17.655v123.586c0 19.421-15.89 35.31-35.31 35.31h-52.966c0 6.452 1.88 12.436 4.935 17.655h48.031c29.205 0 52.966-23.761 52.966-52.966h35.037c4.424 0 8.377-3.138 9.007-7.518a8.83 8.83 0 00-8.734-10.137h-35.31v-17.655h132.414a8.827 8.827 0 008.809-9.417c-.306-4.689-4.41-8.237-9.112-8.237z" fill="#afb9d2"/><g fill="#959cb3"><path d="M450.207 88.276h-26.483a8.826 8.826 0 01-8.828-8.828 8.826 8.826 0 018.828-8.828h26.483a8.826 8.826 0 018.828 8.828 8.826 8.826 0 01-8.828 8.828zM450.207 158.897h-61.793a8.826 8.826 0 01-8.828-8.828 8.826 8.826 0 018.828-8.828h61.793a8.826 8.826 0 018.828 8.828 8.826 8.826 0 01-8.828 8.828z"/></g><path d="M450.207 194.207H326.621a8.826 8.826 0 01-8.828-8.828 8.826 8.826 0 018.828-8.828h123.586a8.826 8.826 0 018.828 8.828 8.826 8.826 0 01-8.828 8.828z" fill="#afb9d2"/><path d="M264.828 0H52.966c-19.421 0-35.31 15.89-35.31 35.31v123.586c0 19.421 15.89 35.31 35.31 35.31h114.759v33.482c0 3.933 4.755 5.901 7.534 3.121l36.604-36.602h52.966c19.421 0 35.31-15.89 35.31-35.31V35.31C300.138 15.89 284.249 0 264.828 0z" fill="#e4eaf6"/><path d="M88.276 52.966H61.794c-4.879 0-8.828-3.953-8.828-8.828s3.948-8.828 8.828-8.828h26.483c4.879 0 8.828 3.953 8.828 8.828s-3.949 8.828-8.829 8.828z" fill="#afb9d2"/><g fill="#c7cfe2"><path d="M256.001 52.966H123.587c-4.879 0-8.828-3.953-8.828-8.828s3.948-8.828 8.828-8.828h132.414c4.879 0 8.828 3.953 8.828 8.828s-3.949 8.828-8.828 8.828zM256.001 88.276H61.794a8.826 8.826 0 01-8.828-8.828 8.826 8.826 0 018.828-8.828h194.207a8.826 8.826 0 018.828 8.828 8.827 8.827 0 01-8.828 8.828z"/></g><path d="M256.001 123.586h-26.483a8.826 8.826 0 01-8.828-8.828 8.826 8.826 0 018.828-8.828h26.483a8.826 8.826 0 018.828 8.828 8.826 8.826 0 01-8.828 8.828z" fill="#afb9d2"/><g fill="#c7cfe2"><path d="M194.207 123.586H61.794a8.826 8.826 0 01-8.828-8.828 8.826 8.826 0 018.828-8.828h132.414a8.826 8.826 0 018.828 8.828 8.826 8.826 0 01-8.829 8.828zM256.001 158.897H61.794a8.826 8.826 0 01-8.828-8.828 8.826 8.826 0 018.828-8.828h194.207a8.826 8.826 0 018.828 8.828 8.827 8.827 0 01-8.828 8.828z"/></g><path fill="#e6af78" d="M169.083 442.738v-28.52H95.746v28.52l36.668 32.593z"/><path d="M225.78 456.078l-50.415-11.862a8.062 8.062 0 01-2.116-.852l-40.834 23.818-39.243-24.972a8.104 8.104 0 01-3.709 2.004l-50.415 11.862a16.3 16.3 0 00-12.565 15.865v31.91A8.15 8.15 0 0034.632 512h195.565a8.15 8.15 0 008.149-8.149v-31.91a16.298 16.298 0 00-12.566-15.863z" fill="#eff2fa"/><path d="M95.746 414.218v30.091c46.193 16.642 73.337-25.01 73.337-25.01v-5.081H95.746z" fill="#d29b6e"/><path d="M79.449 320.509L83 398.618a24.449 24.449 0 009.753 18.446l16.846 12.634a24.444 24.444 0 0014.667 4.889h16.297a24.448 24.448 0 0014.667-4.889l16.846-12.634a24.445 24.445 0 009.753-18.446l3.55-78.11H79.449z" fill="#f0c087"/><path d="M120.191 336.807c16.297 0 40.743-4.074 46.541-16.297H79.449l3.55 78.11a24.449 24.449 0 009.753 18.446l16.846 12.635a24.444 24.444 0 0014.667 4.889h8.149c-8.149 0-24.446-16.297-24.446-36.669v-48.892c.001-4.075 4.074-12.222 12.223-12.222z" fill="#e6af78"/><g fill="#e4eaf6"><path d="M208.435 485.558l26.401-23.716a16.272 16.272 0 013.51 10.1v31.91a8.15 8.15 0 01-8.149 8.149h-28.52v-11.287a20.371 20.371 0 016.758-15.156zM56.393 485.558l-26.401-23.716a16.272 16.272 0 00-3.51 10.1v31.91a8.15 8.15 0 008.149 8.149h28.52v-11.287a20.364 20.364 0 00-6.758-15.156z"/></g><path fill="#5b5d6e" d="M142.6 512h-20.372l2.547-36.669h15.279z"/><path d="M142.6 467.182h-20.372v2.354c0 5.451 4.418 9.869 9.869 9.869h.632c5.451 0 9.869-4.418 9.869-9.869v-2.354h.002z" fill="#515262"/><g fill="#e4eaf6"><path d="M95.174 433.666l37.24 33.516s-10.43 5.265-23.3 15.876c-2.655 2.189-6.671 1.302-8.095-1.831l-17.496-38.492 5.535-8.302a4.075 4.075 0 016.116-.767zM169.655 433.666l-37.24 33.516s10.43 5.265 23.3 15.876c2.655 2.189 6.671 1.302 8.095-1.831l17.496-38.492-5.535-8.302a4.075 4.075 0 00-6.116-.767z"/></g><path d="M157.115 293.517l3.82 26.993c17.436 3.487 19.948 30.849 20.31 38.665a8.045 8.045 0 001.288 3.981l6.653 10.319s-2.278-17.062 8.149-28.52c-.001-.001 3.578-67.735-40.22-51.438z" fill="#785550"/><path d="M193.273 371.731l-4.601 18.404a4.898 4.898 0 01-9.614-.58l-2.353-18.824c-.629-5.034 3.296-9.48 8.369-9.48h.017c5.486.001 9.513 5.157 8.182 10.48z" fill="#f0c087"/><path d="M83.353 286.218l6.027 4.116c-27.246 20.117-22.154 54.621-22.154 54.621 8.149 8.149 8.149 28.52 8.149 28.52l8.149-8.149s-3.145-23.539 12.223-32.594c14.26-8.403 26.738-4.074 39.469-4.074 34.122 0 43.671-12.86 42.016-28.52-.856-8.104-13.246-24.982-44.817-24.446-12.742.216-36.669 4.074-49.062 10.526z" fill="#694b4b"/><path d="M80.977 325.092s-4.329-17.062 8.403-34.759c-27.246 20.117-22.154 54.621-22.154 54.621 8.149 8.149 8.149 28.52 8.149 28.52l8.149-8.149s-3.145-23.539 12.223-32.594c14.26-8.403 26.738-4.074 39.469-4.074 5.549 0 10.386-.372 14.692-1.009-26.279.883-41.77-19.022-68.931-2.556z" fill="#5a4146"/><path d="M71.556 371.731l4.601 18.404a4.898 4.898 0 009.614-.58l2.353-18.824c.629-5.034-3.296-9.48-8.369-9.48h-.017c-5.486.001-9.513 5.157-8.182 10.48z" fill="#e6af78"/><path d="M181.306 503.851h-20.372a8.15 8.15 0 00-8.149 8.149h36.669a8.148 8.148 0 00-8.148-8.149z" fill="#e4eaf6"/><path d="M361.932 278.328c-82.191 0-73.078 99.95-72.703 172.382.014 2.735 1.447 5.202 3.79 6.614 9.108 5.491 34.121 18.327 68.913 18.327s59.805-12.836 68.913-18.327c2.343-1.412 3.776-3.879 3.79-6.614.375-72.43 9.488-172.382-72.703-172.382z" fill="#694b4b"/><path d="M356.636 278.535c-76.441 4.286-67.774 101.356-67.407 172.175.014 2.735 1.447 5.202 3.79 6.614 9.108 5.491 34.121 18.327 68.913 18.327l20.771-145.396" fill="#5a4146"/><path d="M361.932 278.328c-46.734 0-49.98 56.47-49.98 56.47 26.937-4.544 43.489 6.815 70.751-4.544l-20.771 145.397c34.793 0 59.805-12.836 68.913-18.327 2.343-1.412 3.776-3.879 3.79-6.614.375-72.43 9.488-172.382-72.703-172.382z" fill="#694b4b"/><path d="M434.634 450.71c.322-62.239 7.041-144.738-43.209-166.74-.876 4.553-2.464 17.263 1.662 25.514 10.386 20.771 20.771 20.771 31.156 36.349 10.386 57.12-19.843 117.746-29.884 125.999 17.789-4.231 30.54-10.925 36.484-14.508 2.344-1.412 3.777-3.878 3.791-6.614z" fill="#785550"/><path d="M440.621 466.464l-46.335-19.306a10.385 10.385 0 01-6.391-9.587v-12.548h-51.927v12.548c0 4.193-2.521 7.975-6.391 9.587l-46.335 19.306a15.578 15.578 0 00-9.587 14.38v20.771c0 5.736 4.65 10.386 10.386 10.386h155.78c5.736 0 10.386-4.65 10.386-10.386v-20.771c0-6.29-3.781-11.961-9.586-14.38z" fill="#e6af78"/><path d="M440.621 466.464l-44.8-18.667-33.889 14.626-33.889-14.626-44.8 18.667a15.578 15.578 0 00-9.587 14.38v20.771c0 5.736 4.65 10.386 10.386 10.386h155.78c5.736 0 10.386-4.65 10.386-10.386v-20.771a15.58 15.58 0 00-9.587-14.38z" fill="#b4e1fa"/><path d="M387.895 425.022h-51.927v12.548c0 4.193-2.521 7.975-6.391 9.587l-7.236 3.016c55.379 14.121 65.554-25.151 65.554-25.151z" fill="#d29b6e"/><g fill="#a0d2f0"><path d="M298.966 486.552l-20.843-16.579c-2.793 2.856-4.467 6.718-4.467 10.871v20.771c0 5.736 4.65 10.386 10.386 10.386h20.771v-13.283a15.583 15.583 0 00-5.847-12.166zM450.207 501.614v-20.771c0-4.121-1.646-7.957-4.399-10.806l-20.91 16.514a15.578 15.578 0 00-5.846 12.164V512h20.771c5.735 0 10.384-4.65 10.384-10.386zM362.711 501.614h-1.558a4.414 4.414 0 01-4.414-4.414v-34.765h10.386V497.2a4.415 4.415 0 01-4.414 4.414z"/><path d="M361.932 462.423l-29.72-22.29a4.154 4.154 0 00-5.949 1.018l-5.873 8.809 18.221 25.51a4.155 4.155 0 005.975.83l17.346-13.877zM361.932 462.423l29.72-22.29a4.154 4.154 0 015.949 1.018l5.873 8.809-18.221 25.51a4.155 4.155 0 01-5.975.83l-17.346-13.877z"/></g><path d="M387.895 325.063c-25.963 25.963-76.917 5.193-76.917 46.734l3.224 30.6a20.771 20.771 0 0010.598 16.277l29.566 16.425a15.576 15.576 0 0015.13 0l29.566-16.425a20.771 20.771 0 0010.598-16.277l3.722-36.342c.265-2.583.321-5.182.234-7.774-1.942-13.218-20.529-22.833-25.721-33.218z" fill="#f0c087"/><path d="M310.978 371.797l3.224 30.6a20.771 20.771 0 0010.598 16.277l29.566 16.425c3.265 1.814 7.009 2.283 10.573 1.58 0 0-14.906-4.518-23.778-28.533-2.718-7.357-6.49-46.302-3.245-51.062 6.415-9.408 42.19-10.386 52.761-27.839a29.216 29.216 0 01-1.444-1.947c-.035-.052-.078-.105-.114-.158a20.04 20.04 0 01-1.224-2.078c-25.963 25.965-76.917 5.193-76.917 46.735z" fill="#e6af78"/><path d="M399.838 501.614h-13.501a8.829 8.829 0 00-8.828 8.828V512h31.156v-1.558a8.827 8.827 0 00-8.827-8.828z" fill="#a0d2f0"/></symbol><symbol viewBox="0 0 512.001 512.001" id="034-network" xmlns="http://www.w3.org/2000/svg"><path d="M88.222 159.632c-82.142 0-73.034 99.89-72.659 172.277.014 2.734 1.446 5.198 3.788 6.61 9.102 5.487 34.1 18.316 68.871 18.316s59.769-12.829 68.871-18.316c2.341-1.412 3.774-3.876 3.788-6.61.375-72.387 9.483-172.277-72.659-172.277z" fill="#694b4b"/><path d="M82.93 159.838c-76.395 4.283-67.733 101.295-67.367 172.071.014 2.734 1.446 5.199 3.788 6.61 9.102 5.487 34.1 18.316 68.871 18.316l20.759-145.308" fill="#5a4146"/><path d="M88.222 159.632c-46.706 0-49.949 56.436-49.949 56.436 26.921-4.541 43.463 6.811 70.708-4.541L88.222 356.835c34.772 0 59.769-12.829 68.871-18.316 2.341-1.412 3.774-3.876 3.788-6.61.375-72.387 9.483-172.277-72.659-172.277z" fill="#694b4b"/><path d="M160.881 331.909c.322-62.201 7.037-144.651-43.183-166.639-.876 4.55-2.463 17.253 1.661 25.498 10.379 20.759 20.759 20.759 31.137 36.327 10.379 57.085-19.831 117.674-29.865 125.923 17.778-4.228 30.522-10.919 36.462-14.499 2.341-1.411 3.774-3.876 3.788-6.61z" fill="#785550"/><path d="M166.864 347.653l-46.307-19.294a10.379 10.379 0 01-6.387-9.581v-12.541H62.275v12.541c0 4.191-2.52 7.97-6.387 9.581L9.581 347.653A15.57 15.57 0 000 362.025v20.759c0 5.732 4.647 10.379 10.379 10.379h155.686c5.732 0 10.379-4.647 10.379-10.379v-20.759a15.568 15.568 0 00-9.58-14.372z" fill="#e6af78"/><path d="M166.864 347.653l-44.773-18.656-33.869 14.618-33.869-14.617-44.772 18.656A15.568 15.568 0 000 362.025v20.759c0 5.732 4.647 10.379 10.379 10.379h155.686c5.732 0 10.379-4.647 10.379-10.379v-20.759a15.568 15.568 0 00-9.58-14.372z" fill="#eff2fa"/><path d="M114.17 306.237H62.275v12.541c0 4.191-2.52 7.97-6.387 9.581l-7.232 3.014c55.345 14.112 65.514-25.136 65.514-25.136z" fill="#d29b6e"/><g fill="#e4eaf6"><path d="M25.294 367.729L4.464 351.16C1.673 354.014 0 357.874 0 362.025v20.759c0 5.732 4.647 10.379 10.379 10.379h20.759v-13.276a15.572 15.572 0 00-5.844-12.158zM176.445 382.783v-20.759c0-4.119-1.645-7.952-4.397-10.8l-20.898 16.504a15.567 15.567 0 00-5.843 12.157v13.275h20.759c5.732.002 10.379-4.645 10.379-10.377zM89.001 382.783h-1.557a4.411 4.411 0 01-4.411-4.411v-34.745h10.379v34.744a4.411 4.411 0 01-4.411 4.412z"/><path d="M88.222 343.616L58.52 321.34a4.151 4.151 0 00-5.945 1.018l-5.869 8.803 18.21 25.494a4.152 4.152 0 005.972.829l17.334-13.868zM88.222 343.616l29.702-22.276a4.151 4.151 0 015.945 1.018l5.869 8.803-18.21 25.494a4.152 4.152 0 01-5.972.829l-17.334-13.868z"/></g><path d="M114.17 206.339c-25.948 25.947-76.87 5.188-76.87 46.704l3.222 30.581a20.762 20.762 0 0010.591 16.267l29.548 16.415a15.569 15.569 0 0015.121 0l29.548-16.415a20.756 20.756 0 0010.591-16.267l3.72-36.32c.265-2.582.321-5.179.234-7.769-1.94-13.21-20.516-22.818-25.705-33.196z" fill="#f0c087"/><path d="M37.3 253.043l3.222 30.581a20.762 20.762 0 0010.591 16.267l29.548 16.415c3.263 1.813 7.005 2.282 10.567 1.579 0 0-14.897-4.515-23.764-28.516-2.716-7.352-6.487-46.274-3.243-51.031 6.412-9.402 42.165-10.379 52.729-27.822a29.188 29.188 0 01-1.444-1.945c-.035-.052-.078-.105-.114-.158a19.736 19.736 0 01-1.223-2.077c-25.947 25.95-76.869 5.191-76.869 46.707z" fill="#e6af78"/><path d="M126.106 382.783h-13.493a8.822 8.822 0 00-8.822 8.822v1.557h31.137v-1.557a8.822 8.822 0 00-8.822-8.822z" fill="#e4eaf6"/><path fill="#e6af78" d="M442.78 323.524v-28.502h-73.293v28.502l36.646 32.575z"/><path d="M499.443 336.857l-50.385-11.855a8.087 8.087 0 01-2.115-.851l-40.81 23.806L366.915 323a8.112 8.112 0 01-3.706 2.003l-50.385 11.855a16.287 16.287 0 00-12.557 15.855v31.89a8.144 8.144 0 008.144 8.144h195.447a8.144 8.144 0 008.144-8.144v-31.89a16.292 16.292 0 00-12.559-15.856z" fill="#eff2fa"/><path d="M369.487 295.022v30.073c46.165 16.632 73.293-24.995 73.293-24.995v-5.078h-73.293z" fill="#d29b6e"/><path d="M353.2 201.37l3.549 78.063a24.432 24.432 0 009.747 18.435l16.836 12.627a24.43 24.43 0 0014.658 4.886h16.287c5.286 0 10.43-1.715 14.658-4.886l16.836-12.627a24.43 24.43 0 009.747-18.435l3.549-78.063H353.2z" fill="#f0c087"/><path d="M393.918 217.657c16.287 0 40.718-4.071 46.513-16.287H353.2l3.548 78.063a24.432 24.432 0 009.747 18.435l16.836 12.627a24.43 24.43 0 0014.658 4.886h8.144c-8.144 0-24.431-16.287-24.431-36.647v-48.862c0-4.071 4.072-12.215 12.216-12.215z" fill="#e6af78"/><path d="M482.107 366.319l26.385-23.702A16.26 16.26 0 01512 352.711v31.89a8.144 8.144 0 01-8.144 8.144h-28.502v-11.28a20.359 20.359 0 016.753-15.146z" fill="#e4eaf6"/><path fill="#5b5d6e" d="M416.313 392.745h-20.36l2.546-36.646h15.269z"/><path d="M416.313 347.955h-20.36v2.352c0 5.448 4.416 9.863 9.863 9.863h.632c5.448 0 9.863-4.416 9.863-9.863v-2.352h.002z" fill="#515262"/><g fill="#e4eaf6"><path d="M368.914 314.46l37.218 33.496s-10.423 5.261-23.286 15.867c-2.653 2.188-6.667 1.301-8.09-1.829l-17.486-38.468 5.532-8.297a4.071 4.071 0 016.112-.769zM443.351 314.46l-37.218 33.496s10.423 5.261 23.286 15.867c2.653 2.188 6.667 1.301 8.09-1.829l17.486-38.468-5.532-8.297a4.071 4.071 0 00-6.112-.769z"/></g><path d="M430.818 174.394l3.818 26.976c17.425 3.485 19.936 30.83 20.298 38.641a8.036 8.036 0 001.287 3.979l6.649 10.313s-2.276-17.051 8.144-28.502c-.001 0 3.576-67.694-40.196-51.407z" fill="#785550"/><path d="M466.954 252.562l-4.599 18.393a4.896 4.896 0 01-9.607-.58l-2.351-18.812c-.629-5.031 3.294-9.474 8.363-9.474h.017c5.484-.001 9.507 5.153 8.177 10.473z" fill="#f0c087"/><path d="M357.101 167.099l6.023 4.114c-27.23 20.105-22.141 54.588-22.141 54.588 8.144 8.144 8.144 28.502 8.144 28.502l8.144-8.144s-3.143-23.525 12.216-32.574c14.251-8.398 26.721-4.071 39.445-4.071 34.101 0 43.645-12.852 41.991-28.502-.856-8.099-13.238-24.967-44.789-24.431-12.735.216-36.647 4.072-49.033 10.518z" fill="#694b4b"/><path d="M354.726 205.951s-4.326-17.051 8.398-34.738c-27.23 20.105-22.141 54.588-22.141 54.588 8.144 8.144 8.144 28.502 8.144 28.502l8.144-8.144s-3.143-23.525 12.215-32.574c14.251-8.398 26.721-4.071 39.445-4.071 5.546 0 10.379-.372 14.684-1.008-26.262.881-41.743-19.011-68.889-2.555z" fill="#5a4146"/><path d="M345.311 252.562l4.599 18.393a4.896 4.896 0 009.608-.58l2.351-18.812c.629-5.031-3.294-9.474-8.364-9.474h-.017c-5.482-.001-9.507 5.153-8.177 10.473z" fill="#e6af78"/><path d="M454.995 384.602h-20.36a8.144 8.144 0 00-8.144 8.144h36.646a8.142 8.142 0 00-8.142-8.144z" fill="#e4eaf6"/><path d="M256.155 57.5c-139.642 0-124.158 169.814-123.52 292.871.024 4.647 2.458 8.838 6.439 11.237 15.474 9.328 57.97 31.137 117.081 31.137s101.607-21.809 117.081-31.137c3.98-2.4 6.415-6.59 6.439-11.237.638-123.058 16.122-292.871-123.52-292.871z" fill="#694b4b"/><path d="M247.157 57.849C117.286 65.13 132.011 230.051 132.635 350.37c.024 4.647 2.458 8.838 6.439 11.237 15.474 9.328 57.97 31.137 117.081 31.137l35.289-247.023" fill="#5a4146"/><path d="M256.155 57.5c-79.4 0-84.914 95.942-84.914 95.942 45.765-7.719 73.886 11.579 120.203-7.719l-35.289 247.023c59.111 0 101.607-21.809 117.081-31.137 3.98-2.4 6.415-6.59 6.439-11.237.638-123.059 16.122-292.872-123.52-292.872z" fill="#694b4b"/><path d="M379.675 350.372c.548-105.742 11.962-245.906-73.41-283.286-1.489 7.736-4.185 29.331 2.823 43.348 17.645 35.289 35.289 35.289 52.933 61.756 17.644 97.045-33.714 200.047-50.771 214.068 30.222-7.188 51.887-18.562 61.985-24.649 3.981-2.4 6.416-6.59 6.44-11.237z" fill="#785550"/><path d="M389.846 377.137l-78.722-32.801a17.644 17.644 0 01-10.858-16.288v-21.32h-88.222v21.32a17.646 17.646 0 01-10.858 16.288l-78.722 32.801a26.467 26.467 0 00-16.287 24.431v35.289c0 9.744 7.9 17.645 17.644 17.645h264.667c9.744 0 17.644-7.9 17.644-17.645v-35.289a26.464 26.464 0 00-16.286-24.431z" fill="#e6af78"/><path d="M389.846 377.137l-76.114-31.714-57.577 24.849-57.577-24.849-76.114 31.714a26.467 26.467 0 00-16.287 24.431v35.289c0 9.744 7.9 17.645 17.644 17.645h264.667c9.744 0 17.644-7.9 17.644-17.645v-35.289a26.464 26.464 0 00-16.286-24.431z" fill="#b4e1fa"/><path d="M300.266 306.728h-88.222v21.32a17.646 17.646 0 01-10.858 16.288l-12.295 5.124c94.087 23.989 111.375-42.732 111.375-42.732z" fill="#d29b6e"/><g fill="#a0d2f0"><path d="M149.178 411.265l-35.411-28.167c-4.744 4.852-7.588 11.413-7.588 18.469v35.289c0 9.744 7.9 17.644 17.644 17.644h35.289v-22.568a26.475 26.475 0 00-9.934-20.667zM406.133 436.856v-35.289c0-7.002-2.797-13.518-7.475-18.359l-35.526 28.057a26.468 26.468 0 00-9.933 20.667V454.5h35.289c9.745.001 17.645-7.899 17.645-17.644zM256.155 436.856a8.822 8.822 0 01-8.822-8.822v-57.742h17.644v57.743a8.821 8.821 0 01-8.822 8.821z"/><path d="M256.155 370.272l-50.494-37.871a7.058 7.058 0 00-10.107 1.731l-9.977 14.966 30.957 43.339a7.058 7.058 0 0010.152 1.409l29.469-23.574zM256.155 370.272l50.494-37.871a7.058 7.058 0 0110.107 1.731l9.977 14.966-30.957 43.339a7.058 7.058 0 01-10.152 1.409l-29.469-23.574z"/></g><path d="M300.266 136.9c-44.111 44.111-130.679 8.822-130.679 79.4l5.479 51.989a35.286 35.286 0 0018.006 27.653l50.231 27.906a26.466 26.466 0 0025.707 0l50.231-27.906a35.293 35.293 0 0018.006-27.653l6.324-61.745c.45-4.388.546-8.803.397-13.208-3.303-22.457-34.88-38.792-43.702-56.436z" fill="#f0c087"/><path d="M169.587 216.3l5.479 51.989a35.286 35.286 0 0018.006 27.653l50.231 27.906c5.547 3.081 11.908 3.88 17.963 2.685 0 0-25.326-7.674-40.398-48.477-4.617-12.5-11.028-78.665-5.514-86.752 10.899-15.985 71.681-17.645 89.641-47.298a49.282 49.282 0 01-2.455-3.308c-.061-.089-.133-.179-.193-.268-.78-1.172-1.488-2.348-2.079-3.53-44.113 44.111-130.681 8.822-130.681 79.4z" fill="#e6af78"/><path d="M326.733 436.856h-35.289a8.822 8.822 0 00-8.822 8.822v8.822h52.933v-8.822a8.822 8.822 0 00-8.822-8.822z" fill="#a0d2f0"/></symbol><symbol viewBox="0 0 512.003 512.003" id="035-customer-service" xmlns="http://www.w3.org/2000/svg"><path d="M132.422 247.187l-12.775-6.388a8.826 8.826 0 01-4.879-7.895V199.68c0-3.343 1.889-6.4 4.879-7.895l12.775-6.388v61.79z" fill="#707487"/><path fill="#e6af78" d="M335.446 361.939V300.15H176.558v61.789l79.444 70.617z"/><path d="M458.286 390.843l-109.229-25.701c-1.65-.388-3.167-1.047-4.587-1.846l-88.469 51.607-85.019-54.103a17.59 17.59 0 01-8.036 4.343L53.717 390.844c-15.95 3.753-27.222 17.985-27.222 34.37v69.134c0 9.751 7.904 17.654 17.654 17.654h423.702c9.751 0 17.654-7.904 17.654-17.654v-69.134c.002-16.386-11.27-30.619-27.219-34.371z" fill="#b4e1fa"/><path d="M176.558 300.15v65.193c100.078 36.057 158.888-54.185 158.888-54.185v-11.009H176.558v.001z" fill="#d29b6e"/><path d="M141.249 97.127l7.692 169.228a52.962 52.962 0 0021.13 39.965l36.498 27.374a52.969 52.969 0 0031.778 10.593h35.309c11.46 0 22.61-3.717 31.778-10.593l36.498-27.374a52.962 52.962 0 0021.13-39.965l7.692-169.228H141.249z" fill="#f0c087"/><path d="M229.521 132.435c35.309 0 88.271-8.827 100.833-35.309H141.249l7.692 169.228a52.962 52.962 0 0021.131 39.965l36.498 27.374a52.969 52.969 0 0031.778 10.593h17.654c-17.654 0-52.963-35.309-52.963-79.444V158.916c0-8.827 8.827-26.481 26.482-26.481z" fill="#e6af78"/><g fill="#a0d2f0"><path d="M91.3 454.714l-57.199-51.382a35.246 35.246 0 00-7.603 21.882v69.134c0 9.751 7.904 17.654 17.654 17.654h61.79v-24.454A44.14 44.14 0 0091.3 454.714zM420.705 454.714l57.199-51.382a35.246 35.246 0 017.603 21.882v69.134c0 9.751-7.904 17.654-17.654 17.654h-61.79v-24.454a44.133 44.133 0 0114.642-32.834z"/></g><path fill="#5b5d6e" d="M278.07 512.001h-44.136l5.517-79.445h33.102z"/><path d="M278.07 414.902h-44.136v16.613c0 5.451 4.418 9.869 9.869 9.869H268.2c5.451 0 9.869-4.418 9.869-9.869v-16.613h.001z" fill="#515262"/><g fill="#a0d2f0"><path d="M175.319 342.287l80.684 72.615s-22.596 11.407-50.48 34.398c-5.752 4.742-14.453 2.821-17.538-3.966l-37.907-83.394 11.992-17.987c2.984-4.48 9.248-5.266 13.249-1.666z"/><path d="M336.686 342.287l-80.684 72.615s22.596 11.407 50.48 34.398c5.752 4.742 14.453 2.821 17.538-3.966l37.907-83.394-11.992-17.987c-2.985-4.48-9.249-5.266-13.249-1.666z"/></g><path d="M309.516 38.647l8.275 58.48c37.775 7.555 43.219 66.837 44.003 83.769.142 3.073 1.123 6.04 2.79 8.625l14.413 22.358s-4.933-36.964 17.654-61.79c.001 0 7.757-146.751-87.135-111.442z" fill="#785550"/><path d="M149.709 22.831l13.056 8.919c-59.031 43.584-47.998 118.339-47.998 118.339 17.654 17.654 17.654 61.79 17.654 61.79l17.654-17.654s-6.813-50.998 26.481-70.617c30.895-18.206 57.928-8.827 85.513-8.827 73.927 0 94.616-27.861 91.03-61.79-1.856-17.556-28.698-54.126-97.098-52.963-27.604.469-79.443 8.827-106.292 22.803z" fill="#694b4b"/><path d="M144.559 107.057s-9.379-36.964 18.206-75.306c-59.031 43.584-47.998 118.339-47.998 118.339 17.654 17.654 17.654 61.79 17.654 61.79l17.654-17.654s-6.813-50.998 26.481-70.617c30.895-18.206 57.928-8.827 85.513-8.827 12.023 0 22.5-.805 31.832-2.185-56.932 1.908-90.493-41.217-149.342-5.54z" fill="#5a4146"/><path d="M145.663 256.014h-13.241a8.827 8.827 0 01-8.827-8.827v-61.79a8.827 8.827 0 018.827-8.827h13.241a4.414 4.414 0 014.414 4.414V251.6a4.414 4.414 0 01-4.414 4.414z" fill="#5b5d6e"/><path d="M291.311 306.77v-13.241c59.743 0 72.824-33.453 72.824-46.342h13.241c-.001 16.573-15.462 59.583-86.065 59.583z" fill="#464655"/><path d="M291.311 308.977h-8.827a8.827 8.827 0 010-17.654h8.827a8.828 8.828 0 010 17.654z" fill="#5b5d6e"/><path d="M379.582 247.187l12.775-6.388a8.826 8.826 0 004.879-7.895V199.68c0-3.343-1.889-6.4-4.879-7.895l-12.775-6.388v61.79z" fill="#707487"/><path d="M366.341 256.014h13.241a8.827 8.827 0 008.827-8.827v-61.79a8.827 8.827 0 00-8.827-8.827h-13.241a4.414 4.414 0 00-4.414 4.414V251.6a4.414 4.414 0 004.414 4.414z" fill="#5b5d6e"/><path d="M370.755 494.346h-61.79a8.827 8.827 0 00-8.827 8.827V512h79.444v-8.827a8.828 8.828 0 00-8.827-8.827z" fill="#a0d2f0"/></symbol><symbol viewBox="0 0 512 512" id="036-mail" xmlns="http://www.w3.org/2000/svg"><path d="M467 61H45C20.218 61 0 81.196 0 106v300c0 24.72 20.128 45 45 45h422c24.72 0 45-20.128 45-45V106c0-24.72-20.128-45-45-45zm-6.214 30L256.954 294.833 51.359 91h409.427zM30 399.788V112.069l144.479 143.24L30 399.788zM51.213 421l144.57-144.57 50.657 50.222c5.864 5.814 15.327 5.795 21.167-.046L317 277.213 460.787 421H51.213zM482 399.787L338.213 256 482 112.212v287.575z"/></symbol><symbol viewBox="0 0 495.398 495.398" id="037-home-1" xmlns="http://www.w3.org/2000/svg"><path d="M487.083 225.514l-75.08-75.08v-86.73c0-15.682-12.708-28.391-28.413-28.391-15.669 0-28.377 12.709-28.377 28.391v29.941L299.31 37.74c-27.639-27.624-75.694-27.575-103.27.05L8.312 225.514c-11.082 11.104-11.082 29.071 0 40.158 11.087 11.101 29.089 11.101 40.172 0l187.71-187.729c6.115-6.083 16.893-6.083 22.976-.018l187.742 187.747a28.337 28.337 0 0020.081 8.312c7.271 0 14.541-2.764 20.091-8.312 11.086-11.086 11.086-29.053-.001-40.158z"/><path d="M257.561 131.836c-5.454-5.451-14.285-5.451-19.723 0L72.712 296.913a13.977 13.977 0 00-4.085 9.877v120.401c0 28.253 22.908 51.16 51.16 51.16h81.754v-126.61h92.299v126.61h81.755c28.251 0 51.159-22.907 51.159-51.159V306.79c0-3.713-1.465-7.271-4.085-9.877L257.561 131.836z"/></symbol><symbol viewBox="0 0 509.346 509.346" id="038-mortarboard" xmlns="http://www.w3.org/2000/svg"><path d="M398.453 210.645a8.027 8.027 0 00-2.688-5.969 8.047 8.047 0 00-6.25-1.961l-271.781 32a8.004 8.004 0 00-7.063 7.945v72c0 31.574 90.516 40 144 40s144-8.426 144-40v-.016l-.218-103.999z" fill="#5d647f"/><path d="M398.453 234.66h-144v119.999l.219.001c52.085 0 139.253-8 143.781-37.578V234.66z" fill="#68748d"/><path d="M493.125 166.473L288.398 96.281c-21.75-7.461-45.703-7.461-67.453 0L16.227 166.473C6.375 169.848 0 178.758 0 189.176c0 10.414 6.375 19.324 16.227 22.699l204.719 70.191c10.875 3.73 22.297 5.594 33.727 5.594 11.43 0 22.852-1.863 33.727-5.594l204.727-70.191c9.852-3.375 16.219-12.285 16.219-22.699-.002-10.418-6.369-19.328-16.221-22.703z" fill="#74829c"/><path d="M406.453 362.66c-4.422 0-8-3.582-8-8V250.129a8.004 8.004 0 00-5.406-7.57L251.86 194.153a8.003 8.003 0 01-4.977-10.16c1.438-4.18 5.977-6.418 10.164-4.973l141.187 48.406a24.002 24.002 0 0116.219 22.703V354.66c0 4.418-3.578 8-8 8z" fill="#5c546a"/><path d="M414.453 418.66h-16a8 8 0 01-8-8v-48c0-8.837 7.163-16 16-16s16 7.163 16 16v48a8 8 0 01-8 8z" fill="#ffe671"/><path d="M254.672 322.66c58.042 0 116.569-8.797 143.962-25.802l-.046-21.896c-.885 10.94-51.563 31.698-143.916 31.698-93.172 0-144-21.141-144-32v22.174c27.376 17.02 85.931 25.826 144 25.826z" fill="#5d647f"/><path d="M398.453 296.96c.057-.035.125-.067.181-.102l-.046-21.896c-.01.124-.112.265-.135.391v21.607zM254.453 306.657c-93.028-.034-143.781-21.146-143.781-31.997v22.174c27.342 16.998 85.783 25.801 143.781 25.824v-16.001z" fill="#5c546a"/><ellipse cx="254.672" cy="186.66" rx="32" ry="16" fill="#5d647f"/><path d="M390.453 362.66v48a8 8 0 008 8h8v-72c-8.836 0-16 7.163-16 16z" fill="#ffcd00"/></symbol><symbol viewBox="0 0 268.765 268.765" id="039-gear" xmlns="http://www.w3.org/2000/svg"><path d="M267.92 119.461c-.425-3.778-4.83-6.617-8.639-6.617-12.315 0-23.243-7.231-27.826-18.414-4.682-11.454-1.663-24.812 7.515-33.231a7.463 7.463 0 00.817-10.133 132.977 132.977 0 00-21.289-21.5c-3.063-2.458-7.557-2.116-10.213.825-8.01 8.871-22.398 12.168-33.516 7.529-11.57-4.867-18.866-16.591-18.152-29.176a7.455 7.455 0 00-6.595-7.849 134.163 134.163 0 00-30.232-.08 7.478 7.478 0 00-6.654 7.689c.438 12.461-6.946 23.98-18.401 28.672-10.985 4.487-25.272 1.218-33.266-7.574-2.642-2.896-7.063-3.252-10.141-.853a133.478 133.478 0 00-21.74 21.493c-2.481 3.086-2.116 7.559.802 10.214 9.353 8.47 12.373 21.944 7.514 33.53-4.639 11.046-16.109 18.165-29.24 18.165-4.261-.137-7.296 2.723-7.762 6.597a134.618 134.618 0 00-.058 30.561c.422 3.794 4.961 6.608 8.812 6.608 11.702-.299 22.937 6.946 27.65 18.415 4.698 11.454 1.678 24.804-7.514 33.23a7.469 7.469 0 00-.817 10.126 133.459 133.459 0 0021.259 21.508c3.079 2.481 7.559 2.131 10.228-.81 8.04-8.893 22.427-12.184 33.501-7.536 11.599 4.852 18.895 16.575 18.181 29.167a7.464 7.464 0 006.595 7.85 133.572 133.572 0 0030.233.081 7.479 7.479 0 006.653-7.696c-.451-12.454 6.946-23.973 18.386-28.657 11.059-4.517 25.286-1.211 33.281 7.572a7.51 7.51 0 0010.142.848 133.787 133.787 0 0021.74-21.494 7.461 7.461 0 00-.803-10.213c-9.353-8.47-12.388-21.946-7.529-33.524 4.568-10.899 15.612-18.217 27.491-18.217l1.662.043c3.853.313 7.398-2.655 7.865-6.588a134.504 134.504 0 00.06-30.561zm-133.325 60.03c-24.718 0-44.824-20.106-44.824-44.824 0-24.717 20.106-44.824 44.824-44.824 24.717 0 44.823 20.107 44.823 44.824 0 24.718-20.106 44.824-44.823 44.824z" fill-rule="evenodd" clip-rule="evenodd"/></symbol><symbol viewBox="0 0 536.071 536.07" id="040-group" xmlns="http://www.w3.org/2000/svg"><path d="M147.128 91.076c0-37.95 30.766-68.716 68.721-68.716 37.95 0 68.719 30.766 68.719 68.716s-30.769 68.715-68.719 68.715c-37.955.001-68.721-30.765-68.721-68.715zm101.745 115.531c.689-14.963 5.84-28.812 14.127-40.261a87.66 87.66 0 00-17.995-1.865h-58.304c-6.15 0-12.153.642-17.939 1.845 8.819 12.232 14.094 27.171 14.18 43.343a74.66 74.66 0 0136.085-9.253 74.646 74.646 0 0129.846 6.191zm11.632 6.168c19.96 12.517 33.957 33.688 36.517 58.274 8.133 3.801 17.171 5.994 26.746 5.994 34.968 0 63.311-28.346 63.311-63.313 0-34.971-28.343-63.311-63.311-63.311-34.648.001-62.737 27.838-63.263 62.356zm-41.479 129.636c34.962 0 63.307-28.354 63.307-63.311 0-34.962-28.345-63.311-63.307-63.311-34.965 0-63.322 28.348-63.322 63.311.001 34.957 28.357 63.311 63.322 63.311zm26.856 4.309h-53.717c-44.697 0-81.069 36.369-81.069 81.072v65.703l.171 1.029 4.522 1.406c42.658 13.323 79.718 17.779 110.224 17.779 59.571 0 94.114-16.987 96.242-18.074l4.231-2.141h.449v-65.703c.001-44.702-36.35-81.071-81.053-81.071zm104.756-65.356h-53.314c-.579 21.332-9.683 40.542-24.081 54.35 39.732 11.815 68.802 48.657 68.802 92.178v20.245c52.629-1.938 82.963-16.846 84.961-17.851l4.232-2.152h.449v-65.715c.006-44.691-36.363-81.055-81.049-81.055zm14.251-132.295c19.961 12.519 33.957 33.691 36.511 58.277 8.134 3.801 17.171 5.99 26.746 5.99 34.975 0 63.316-28.342 63.316-63.304 0-34.972-28.342-63.311-63.316-63.311-34.643-.004-62.73 27.839-63.257 62.348zm90.121 68.589h-53.303c-.579 21.332-9.682 40.542-24.08 54.349 39.731 11.811 68.801 48.658 68.801 92.179v20.245c52.624-1.934 82.964-16.84 84.962-17.852l4.226-2.145h.455v-65.723c.006-44.687-36.363-81.053-81.061-81.053zm-347.073 59.386c12.386 0 23.903-3.618 33.67-9.777 3.106-20.241 13.958-37.932 29.454-49.975.065-1.188.174-2.361.174-3.561 0-34.971-28.351-63.311-63.298-63.311-34.977 0-63.316 28.339-63.316 63.311 0 34.973 28.338 63.313 63.316 63.313zm56.858 58.67c-14.331-13.742-23.404-32.847-24.072-54.055-1.971-.147-3.928-.295-5.943-.295H81.069C36.366 281.364 0 317.728 0 362.425v65.709l.166 1.023 4.528 1.412c34.214 10.699 64.761 15.616 91.292 17.153v-19.837c.005-43.514 29.068-80.362 68.809-92.171z"/></symbol><symbol viewBox="0 0 51.997 51.997" id="041-like-1" xmlns="http://www.w3.org/2000/svg"><path d="M51.911 16.242c-.759-8.354-6.672-14.415-14.072-14.415-4.93 0-9.444 2.653-11.984 6.905-2.517-4.307-6.846-6.906-11.697-6.906C6.759 1.826.845 7.887.087 16.241c-.06.369-.306 2.311.442 5.478 1.078 4.568 3.568 8.723 7.199 12.013l18.115 16.439 18.426-16.438c3.631-3.291 6.121-7.445 7.199-12.014.748-3.166.502-5.108.443-5.477zm-2.39 5.019c-.984 4.172-3.265 7.973-6.59 10.985L25.855 47.481 9.072 32.25c-3.331-3.018-5.611-6.818-6.596-10.99-.708-2.997-.417-4.69-.416-4.701l.015-.101c.65-7.319 5.731-12.632 12.083-12.632 4.687 0 8.813 2.88 10.771 7.515l.921 2.183.921-2.183c1.927-4.564 6.271-7.514 11.069-7.514 6.351 0 11.433 5.313 12.096 12.727.002.016.293 1.71-.415 4.707z"/></symbol><symbol viewBox="-21 -47 682.667 682" id="042-comment" xmlns="http://www.w3.org/2000/svg"><path d="M552.012-1.332H87.988C39.473-1.332 0 38.133 0 86.656V370.63c0 48.414 39.3 87.816 87.676 87.988V587.48l185.191-128.863h279.145c48.515 0 87.988-39.472 87.988-87.988V86.656c0-48.523-39.473-87.988-87.988-87.988zm50.488 371.96c0 27.837-22.648 50.49-50.488 50.49h-290.91l-135.926 94.585v-94.586H87.988c-27.84 0-50.488-22.652-50.488-50.488V86.656c0-27.843 22.648-50.488 50.488-50.488h464.024c27.84 0 50.488 22.645 50.488 50.488zm0 0"/><path d="M171.293 131.172h297.414v37.5H171.293zm0 0M171.293 211.172h297.414v37.5H171.293zm0 0M171.293 291.172h297.414v37.5H171.293zm0 0"/></symbol><symbol viewBox="0 0 60 60" id="043-chat" xmlns="http://www.w3.org/2000/svg"><path d="M30 1.5c-16.542 0-30 12.112-30 27 0 5.204 1.646 10.245 4.768 14.604-.591 6.537-2.175 11.39-4.475 13.689a1 1 0 00.846 1.697c.405-.057 9.813-1.411 16.618-5.339C21.621 54.71 25.737 55.5 30 55.5c16.542 0 30-12.112 30-27s-13.458-27-30-27zm-14 31c-2.206 0-4-1.794-4-4s1.794-4 4-4 4 1.794 4 4-1.794 4-4 4zm14 0c-2.206 0-4-1.794-4-4s1.794-4 4-4 4 1.794 4 4-1.794 4-4 4zm14 0c-2.206 0-4-1.794-4-4s1.794-4 4-4 4 1.794 4 4-1.794 4-4 4z"/></symbol><symbol viewBox="0 0 25.96 25.96" id="044-group-1" xmlns="http://www.w3.org/2000/svg"><path d="M11.896 17.15c-.131-.043-.953-.887-.439-2.474h-.007c1.34-1.401 2.487-3.655 2.487-5.876 0-3.412-2.359-5.201-4.957-5.201-2.6 0-4.855 1.789-4.855 5.201 0 2.229 1.051 4.492 2.398 5.892.525 1.398-.414 2.384-.611 2.458C3.192 18.148 0 19.97 0 21.767v.674c0 2.449 4.677 3.006 9.006 3.006 4.334 0 8.953-.557 8.953-3.006v-.674c0-1.852-3.208-3.658-6.063-4.617z" fill="#030104"/><path d="M20.259 12.651c-.122-.041-.896-.23-.413-1.723h-.006c1.26-1.316 2.129-3.438 2.129-5.523 0-3.209-2.01-4.891-4.452-4.891-1.798 0-3.347.918-4.042 2.678 1.459 1.205 2.463 3.081 2.463 5.607 0 2.697-1.264 5.158-2.586 6.746 2.106.797 5.397 2.4 6.339 4.85 3.318-.184 6.269-.873 6.269-2.771v-.633c-.001-1.74-3.017-3.439-5.701-4.34z" fill="#030104"/></symbol><symbol viewBox="-55 0 512 512" id="045-follow" xmlns="http://www.w3.org/2000/svg"><path d="M244.39 433c0 43.629 35.372 79 79 79s79-35.371 79-79-35.37-79-79-79-79 35.371-79 79zm117.5-15v30h-23.5v23.5h-30V448h-23.5v-30h23.5v-23.5h30V418zm0 0"/><path d="M246.316 355.926C266.902 335.34 294.273 324 323.391 324c6.48 0 12.879.566 19.132 1.668-10.535-61.2-53.418-111.473-110.355-132.52 27.848-19.082 46.152-51.109 46.152-87.34C278.32 47.466 230.855 0 172.512 0S66.703 47.465 66.703 105.809c0 36.226 18.309 68.257 46.152 87.34C47.043 217.48 0 280.854 0 355.018v69.594h214.707c1.965-25.957 13.012-50.09 31.61-68.687zm0 0"/></symbol><symbol viewBox="0 0 512 512" id="046-friends" xmlns="http://www.w3.org/2000/svg"><path d="M158.014 8.882c-23.171 0-44.411 9.112-59.807 25.656-16.028 17.221-24.498 40.729-24.498 67.984 0 28.607 9.416 57.55 25.831 79.404 7.405 9.86 6.871 23.561-1.271 32.579-9.202 10.194-21.221 16.927-34.754 19.473C26.713 240.896 0 273.003 0 310.32v52.906h95.926v-15.673H15.673V310.32c0-29.783 21.339-55.411 50.738-60.938 16.933-3.184 31.973-11.612 43.493-24.373 13.155-14.574 14.068-36.651 2.168-52.496-14.208-18.915-22.69-45.079-22.69-69.991 0-23.222 7.019-43.037 20.297-57.306 12.399-13.322 29.564-20.66 48.427-20.66 25.39 0 46.824 12.913 58.805 35.426l13.837-7.363c-14.574-27.388-41.731-43.737-72.734-43.737zM218.63 411.899h102.58v15.673H218.63z"/><path d="M370.445 298.326c-13.538-2.55-25.555-9.283-34.753-19.474-8.147-9.024-8.684-22.727-1.278-32.582 16.419-21.845 25.835-50.787 25.835-79.405 0-27.254-8.471-50.762-24.498-67.984-15.398-16.546-36.636-25.659-59.898-25.659-23.172 0-44.412 9.112-59.808 25.657-16.023 17.221-24.493 40.729-24.493 67.984 0 28.612 9.412 57.553 25.824 79.405 7.41 9.86 6.878 23.563-1.266 32.583-9.094 10.075-20.946 16.772-34.302 19.386l-.458.086c-36.803 6.913-63.515 39.021-63.515 76.344v52.905h48.035v-15.673h-32.362v-37.232c0-29.615 21.086-55.116 50.218-60.84l.533-.1c16.937-3.192 31.975-11.62 43.486-24.373 13.161-14.576 14.071-36.657 2.164-52.501-14.203-18.91-22.682-45.074-22.682-69.99 0-23.222 7.019-43.038 20.295-57.306 12.398-13.323 29.563-20.661 48.428-20.661 18.767 0 35.931 7.337 48.33 20.662 13.28 14.27 20.299 34.086 20.299 57.306 0 24.921-8.482 51.084-22.691 69.988-11.905 15.841-10.99 37.921 2.172 52.501 11.515 12.756 26.552 21.184 43.491 24.374 8.198 1.541 15.858 4.629 22.765 9.179l8.622-13.088c-8.653-5.698-18.241-9.566-28.493-11.492zM423.059 325.378c-49.043 0-88.942 39.867-88.942 88.871 0 49.003 39.899 88.87 88.942 88.87S512 463.25 512 414.248c0-49.003-39.899-88.87-88.941-88.87zm0 162.067c-40.4 0-73.268-32.836-73.268-73.196s32.868-73.197 73.268-73.197 73.267 32.836 73.267 73.197c.001 40.36-32.867 73.196-73.267 73.196z"/><path d="M430.896 406.411v-30.528h-15.673v30.528H384.66v15.675h30.563v30.526h15.673v-30.526h30.561v-15.675zM184.15 411.899h15.673v15.673H184.15z"/></symbol><symbol viewBox="-16 0 512 512" id="047-laugh" xmlns="http://www.w3.org/2000/svg"><g fill-rule="evenodd"><path d="M175.668 321.332c0-35.434-28.828-64.266-64.266-64.266s-64.27 28.832-64.27 64.266c0 35.438 28.833 64.27 64.27 64.27s64.266-28.832 64.266-64.27zm0 0M111.398 385.602C49.875 385.602 0 435.477 0 497c0 8.285 6.715 15 15 15h192.8c8.286 0 15-6.715 15-15 0-61.523-49.874-111.398-111.402-111.398zm0 0M368.469 257.066c-35.438 0-64.27 28.832-64.27 64.266 0 35.438 28.832 64.27 64.27 64.27s64.265-28.832 64.265-64.27c0-35.434-28.828-64.266-64.265-64.266zm0 0M368.469 385.602c-61.524 0-111.403 49.875-111.403 111.398 0 8.285 6.72 15 15 15h192.801c8.285 0 15-6.715 15-15 0-61.523-49.875-111.398-111.398-111.398zm0 0M368.469 222.8c25.988 0 47.133-21.144 47.133-47.132V47.133C415.602 20.87 394.293 0 368.469 0H111.402c-26.28 0-47.136 21.324-47.136 47.133v128.535c0 25.988 21.144 47.133 47.136 47.133h75.223l39.895 79.785a14.997 14.997 0 0026.832 0l39.89-79.785zM272.066 64.267c8.282 0 15 6.722 15 15 0 8.28-6.718 15-15 15-8.277 0-15-6.72-15-15 0-8.278 6.723-15 15-15zm-64.265 0c8.281 0 15 6.722 15 15 0 8.28-6.719 15-15 15s-15-6.72-15-15c0-8.278 6.719-15 15-15zm32.133 102.3c-23.567 0-46.075-11.254-60.204-30.101-4.968-6.63-3.62-16.031 3.008-21 6.63-4.969 16.032-3.625 20.996 3.004 8.496 11.332 22.028 18.097 36.2 18.097s27.703-6.765 36.199-18.097c4.969-6.63 14.37-7.977 21-3.004 6.629 4.969 7.972 14.37 3.004 21-14.13 18.847-36.637 30.101-60.203 30.101zm0 0"/></g></symbol></svg>